<?xml version="1.0" encoding="utf-8"?>
<!-- Generator: Adobe Illustrator 23.0.3, SVG Export Plug-In . SVG Version: 6.00 Build 0)  -->
<svg version="1.1" id="Layer_1" xmlns="http://www.w3.org/2000/svg" xmlns:xlink="http://www.w3.org/1999/xlink" x="0px" y="0px"
	 viewBox="0 0 276 49" style="enable-background:new 0 0 276 49;" xml:space="preserve">
<style type="text/css">
	.st0{fill:#5352ED;}
	.st1{fill:#090E26;}
</style>
<g>
	<g>
		<g>
			<path class="st0" d="M77.2,17.8h6v27.6h-6V34H66.8v11.4h-6V17.8h6v10.6h10.4V17.8z"/>
			<path class="st0" d="M98.9,46c-2.2,0-4.1-0.5-5.9-1.5c-1.8-1-3.1-2.3-4.1-4c-1-1.7-1.5-3.6-1.5-5.7c0-2.1,0.5-4,1.5-5.8
				c1-1.7,2.4-3.1,4.1-4c1.8-1,3.7-1.5,5.9-1.5c2.2,0,4.1,0.5,5.9,1.5c1.8,1,3.1,2.3,4.1,4c1,1.7,1.5,3.6,1.5,5.8
				c0,2.1-0.5,4-1.5,5.7c-1,1.7-2.4,3.1-4.1,4C103,45.5,101,46,98.9,46z M94.8,39c1.1,1.1,2.4,1.6,4.1,1.6c1.7,0,3-0.5,4.1-1.6
				c1.1-1.1,1.6-2.5,1.6-4.2c0-1.7-0.5-3.1-1.6-4.2c-1.1-1.1-2.4-1.6-4.1-1.6c-1.7,0-3,0.5-4.1,1.6c-1.1,1.1-1.6,2.5-1.6,4.2
				C93.2,36.5,93.7,37.9,94.8,39z"/>
			<path class="st0" d="M124.2,46c-3,0-5.4-0.9-7.3-2.6c-1.8-1.8-2.8-4.1-2.8-6.9V24.1h5.8v11.6c0,1.5,0.4,2.7,1.1,3.5
				c0.8,0.9,1.8,1.3,3.1,1.3c1.3,0,2.4-0.4,3.1-1.3c0.7-0.9,1.1-2,1.1-3.5V24.1h5.8v12.3c0,2.9-0.9,5.2-2.7,6.9
				C129.6,45.1,127.2,46,124.2,46z"/>
			<path class="st0" d="M147,46c-2.7,0-4.8-0.7-6.5-2.1c-1.6-1.4-2.5-3.2-2.5-5.5h5.6c0,0.9,0.3,1.6,1,2.1c0.6,0.5,1.5,0.7,2.6,0.7
				c0.8,0,1.6-0.2,2.1-0.6c0.6-0.4,0.9-0.9,0.9-1.6c0-0.3-0.1-0.6-0.3-0.9c-0.2-0.3-0.5-0.5-0.9-0.6c-0.4-0.2-0.8-0.3-1.3-0.4
				c-0.4-0.1-0.9-0.2-1.6-0.3c-0.6-0.1-1.1-0.2-1.5-0.3c-0.4-0.1-0.9-0.2-1.5-0.4c-0.6-0.2-1.1-0.3-1.5-0.5
				c-0.4-0.2-0.8-0.5-1.3-0.8c-0.4-0.3-0.8-0.7-1.1-1.1c-0.3-0.4-0.5-0.9-0.7-1.5c-0.2-0.6-0.3-1.2-0.3-1.9c0-2,0.8-3.7,2.4-4.9
				c1.6-1.3,3.6-1.9,6.2-1.9c2.6,0,4.6,0.7,6.2,2c1.6,1.3,2.3,3,2.3,5.1H150c0-0.8-0.3-1.5-0.9-1.9c-0.6-0.4-1.3-0.6-2.4-0.6
				c-0.9,0-1.6,0.2-2.1,0.6c-0.5,0.4-0.8,0.9-0.8,1.5c0,0.2,0,0.4,0.1,0.6c0.1,0.2,0.2,0.3,0.4,0.5c0.2,0.1,0.4,0.3,0.6,0.3
				c0.2,0.1,0.5,0.2,0.8,0.3c0.4,0.1,0.7,0.2,0.9,0.2c0.2,0,0.6,0.1,1.1,0.2c2.1,0.4,3.6,0.8,4.5,1.2c2.3,1,3.4,2.8,3.4,5.4
				c0,2.2-0.8,3.9-2.4,5.2C151.8,45.3,149.7,46,147,46z"/>
			<path class="st0" d="M180.8,34.7c0,0.6,0,1.1-0.1,1.7h-16.1c0.2,1.4,0.8,2.6,1.7,3.3c0.9,0.8,2.1,1.2,3.5,1.2
				c1,0,1.9-0.2,2.7-0.7c0.8-0.4,1.4-1,1.8-1.8h6c-0.8,2.3-2.1,4.2-4,5.5c-1.9,1.4-4.1,2-6.5,2c-2.1,0-3.9-0.5-5.6-1.5
				c-1.7-1-3-2.3-4-4c-1-1.7-1.4-3.6-1.4-5.7c0-2.1,0.5-4,1.4-5.7c1-1.7,2.3-3.1,4-4c1.7-1,3.6-1.5,5.6-1.5c2.1,0,4,0.5,5.7,1.5
				c1.7,1,3,2.4,3.9,4C180.3,30.8,180.8,32.6,180.8,34.7z M169.8,28.4c-1.3,0-2.3,0.4-3.2,1.1c-0.9,0.7-1.5,1.7-1.8,3H175
				c-0.4-1.3-1-2.3-2-3C172.1,28.8,171,28.4,169.8,28.4z"/>
		</g>
		<g>
			<path class="st1" d="M200.2,45.4l-5.4-9.4H191v9.4h-6V17.8h11.1c2.8,0,5.1,0.9,6.9,2.6c1.8,1.7,2.7,3.9,2.7,6.6
				c0,1.8-0.4,3.4-1.3,4.8c-0.9,1.4-2.1,2.5-3.7,3.2l6.1,10.4H200.2z M191,23.3v7.1h4.8c1.2,0,2.2-0.3,2.9-1
				c0.7-0.7,1.1-1.5,1.1-2.6c0-1.1-0.4-1.9-1.1-2.6c-0.7-0.7-1.7-1-2.9-1H191z"/>
			<path class="st1" d="M230.8,34.7c0,0.6,0,1.1-0.1,1.7h-16.1c0.2,1.4,0.8,2.6,1.7,3.3c0.9,0.8,2.1,1.2,3.5,1.2
				c1,0,1.9-0.2,2.7-0.7c0.8-0.4,1.4-1,1.8-1.8h6c-0.8,2.3-2.1,4.2-4,5.5c-1.9,1.4-4.1,2-6.5,2c-2.1,0-3.9-0.5-5.6-1.5
				c-1.7-1-3-2.3-4-4c-1-1.7-1.4-3.6-1.4-5.7c0-2.1,0.5-4,1.4-5.7c1-1.7,2.3-3.1,4-4c1.7-1,3.6-1.5,5.6-1.5c2.1,0,4,0.5,5.7,1.5
				c1.7,1,3,2.4,3.9,4C230.4,30.8,230.8,32.6,230.8,34.7z M219.8,28.4c-1.3,0-2.3,0.4-3.2,1.1c-0.9,0.7-1.5,1.7-1.8,3h10.3
				c-0.4-1.3-1-2.3-2-3C222.2,28.8,221.1,28.4,219.8,28.4z"/>
			<path class="st1" d="M247,23.6c2.4,0,4.3,0.8,5.8,2.4c1.4,1.6,2.1,3.8,2.1,6.5v12.9h-5.8v-12c0-3.2-1.2-4.8-3.7-4.8
				c-1.5,0-2.6,0.5-3.5,1.5c-0.9,1-1.3,2.4-1.3,4.1v11.2h-5.8V24.1h3.9l1.1,2.6c0.8-1,1.8-1.7,3.1-2.3
				C244.3,23.9,245.6,23.6,247,23.6z"/>
			<path class="st1" d="M270.4,40.3h2.6v5.1h-4.1c-2.3,0-4.2-0.7-5.5-2c-1.4-1.4-2-3.2-2-5.6v-9.1h-3.8v-1.2l8.4-8.9h1.1v5.6h5.9
				v4.6h-5.8V37c0,1,0.3,1.8,0.8,2.4C268.5,40,269.3,40.3,270.4,40.3z"/>
		</g>
	</g>
	<path class="st0" d="M27,41.6h4.4V13.3l14,6c0.8,0.3,1.3,1.1,1.3,2v20.4H51V46H3v-4.4h4.4V12.5c0-0.9,0.5-1.6,1.3-2l16.8-7.5
		c0.6-0.2,1.2,0,1.4,0.6C27,3.8,27,3.9,27,4.1V41.6z"/>
</g>
</svg>
