<svg xmlns="http://www.w3.org/2000/svg" xmlns:xlink="http://www.w3.org/1999/xlink" width="118.82" height="120.028" viewBox="0 0 118.82 120.028">
  <defs>
    <linearGradient id="linear-gradient" x1="-0.092" y1="0.088" x2="1.13" y2="1.255" gradientUnits="objectBoundingBox">
      <stop offset="0" stop-color="#3b99fe"/>
      <stop offset="1" stop-color="#3b54ff"/>
    </linearGradient>
  </defs>
  <path id="Congratulations" d="M89.127,97.009l4.1,8.194h35.609l-4.1-8.194Zm-6.63,0H46.888l-4.1,8.194H78.4Zm5.364,6.63v17.953h-4.1V103.639L80.932,109.3H50.985v32.778H83.763v-14.34h4.1v14.34h32.777V109.3H90.691ZM67.374,137.981H55.082v-4.1H67.374Zm0-8.194H55.082v-4.1H67.374Zm8.2,8.194h-4.1v-4.1h4.1Zm.782-85.5,9.461-2.411,9.461,2.411.742-10.159,5.027-8.586-8.888-3.847-6.34-7.839-6.339,7.839-8.89,3.847,5.028,8.586ZM44.8,56.662l2.979-5.084L42.5,49.292l-3.808-4.708-3.808,4.708L29.61,51.578l2.98,5.084.438,6.062,5.666-1.443,5.667,1.443Zm82.464,6.062,5.668-1.443,5.666,1.443.438-6.062,2.98-5.084-5.276-2.285-3.808-4.708-3.809,4.708-5.276,2.285,2.979,5.084ZM47.8,67.983a45.479,45.479,0,0,1,10.294,9.44l8.115,10.139L64.532,74.14a26.32,26.32,0,0,0-10.271-17.7L52.3,54.973l-6,12.008Zm57.615,19.579,8.115-10.141a45.488,45.488,0,0,1,10.294-9.44l1.5-1-6-12.008-1.963,1.476A26.31,26.31,0,0,0,107.092,74.14ZM94.006,88.814h4.1V80.231a42.218,42.218,0,0,1,9.77-26.981l-3.149-2.622a46.322,46.322,0,0,0-10.719,29.6Zm18.438-45.069h-4.1v4.1h4.1Zm6.146-8.195h-4.1v4.1h4.1ZM73.521,88.814h4.1V80.231A46.334,46.334,0,0,0,66.9,50.629l-3.149,2.622A42.228,42.228,0,0,1,73.52,80.231ZM63.277,43.745h-4.1v4.1h4.1ZM57.131,35.55h-4.1v4.1h4.1ZM87.861,53.988h-4.1v4.1h4.1Zm-4.1,34.826h4.1V62.182h-4.1Zm57.361-10.243v-4.1h-4.1v4.1h4.1v4.1h-4.1v-4.1h-4.1v4.1h4.1v4.1h4.1v-4.1h4.1v-4.1ZM134.978,35.55h4.1v-4.1h4.1v-4.1h-4.1v4.1h-4.1v-4.1h4.1v-4.1h-4.1v4.1h-4.1v4.1h4.1ZM34.6,90.863h4.1v-4.1H34.6Zm-4.1-4.1h4.1v-4.1H30.5v4.1H26.4v4.1h4.1v4.1h4.1v-4.1H30.5Zm0-51.216h4.1v-4.1h4.1v-4.1H34.6v4.1H30.5v-4.1h4.1v-4.1H30.5v4.1H26.4v4.1h4.1Z" transform="translate(-26.402 -22.05)" fill="url(#linear-gradient)"/>
</svg>
