<svg xmlns="http://www.w3.org/2000/svg" width="76.362" height="70" viewBox="0 0 76.362 70">
  <g id="any" transform="translate(-19.023 -20.609)" style="isolation: isolate">
    <path id="Path_795" data-name="Path 795" d="M44.152,23.033H15.516a3.183,3.183,0,1,1,0-6.367H44.152a3.183,3.183,0,1,1,0,6.367Z" transform="translate(27.369 42.119)" fill="#3b99fe"/>
    <path id="Path_796" data-name="Path 796" d="M74.817,8.667H17.545A9.555,9.555,0,0,0,8,18.212V69.122a9.555,9.555,0,0,0,9.545,9.545H74.817a9.555,9.555,0,0,0,9.545-9.545V18.212A9.555,9.555,0,0,0,74.817,8.667Zm0,63.633H17.545a3.186,3.186,0,0,1-3.183-3.183V24.574H78V69.117A3.178,3.178,0,0,1,74.817,72.3Z" transform="translate(11.023 11.942)" fill="#3b54ff"/>
    <g id="Group_9315" data-name="Group 9315" transform="translate(38.118 52.425)">
      <path id="Path_797" data-name="Path 797" d="M17.333,18.515V31.244a3.18,3.18,0,0,0,5.431,2.248l6.362-6.362a3.186,3.186,0,0,0,0-4.5l-6.362-6.362a3.18,3.18,0,0,0-5.431,2.248Z" transform="translate(8.115 -15.333)" fill="#3b99fe"/>
      <path id="Path_798" data-name="Path 798" d="M24.725,18.515V31.244a3.18,3.18,0,0,1-5.431,2.248L12.932,27.13a3.186,3.186,0,0,1,0-4.5l6.362-6.362a3.18,3.18,0,0,1,5.431,2.248Z" transform="translate(-12.001 -15.333)" fill="#3b99fe"/>
    </g>
  </g>
</svg>
