<svg xmlns="http://www.w3.org/2000/svg" width="45.465" height="70" viewBox="0 0 45.465 70">
  <g id="Christian" transform="translate(-89.729 0)">
    <path id="Path_1024" data-name="Path 1024" d="M133.143,16.334H116.8V2.048A2.05,2.05,0,0,0,114.75,0h-4.577a2.05,2.05,0,0,0-2.051,2.048V16.334H91.78a2.05,2.05,0,0,0-2.051,2.048v4.572A2.05,2.05,0,0,0,91.78,25h16.342v42.95A2.05,2.05,0,0,0,110.173,70h4.577a2.05,2.05,0,0,0,2.051-2.048V25h16.342a2.05,2.05,0,0,0,2.051-2.048V18.382a2.05,2.05,0,0,0-2.051-2.048Z" fill="#3b99fe"/>
    <path id="Path_1025" data-name="Path 1025" d="M276.681,16.334H260.339V2.048A2.05,2.05,0,0,0,258.288,0H256V70h2.289a2.05,2.05,0,0,0,2.051-2.048V25h16.342a2.05,2.05,0,0,0,2.051-2.048V18.382a2.05,2.05,0,0,0-2.051-2.048Z" transform="translate(-143.538)" fill="#3b54ff"/>
  </g>
</svg>
