<svg id="Family" xmlns="http://www.w3.org/2000/svg" width="73.999" height="74" viewBox="0 0 73.999 74">
  <path id="Path_799" data-name="Path 799" d="M261.434,27.062a7.655,7.655,0,0,1,1.531,4.593V37.57a4.2,4.2,0,0,0,1.231,2.971,4.511,4.511,0,0,1-3.19,7.7h-16.5a4.511,4.511,0,0,1-3.19-7.7,4.2,4.2,0,0,0,1.231-2.971V31.655A7.655,7.655,0,0,1,250.207,24h5.1a7.654,7.654,0,0,1,6.124,3.063Z" transform="translate(-205.552 -23.999)" fill="#bfbfbd"/>
  <path id="Path_800" data-name="Path 800" d="M287.31,59.483a7.655,7.655,0,0,1-7.655,7.655,7.74,7.74,0,0,1-1.732-.2A7.662,7.662,0,0,1,272,59.483V53.1a8.256,8.256,0,0,0,7.386-4.565l.269-.538c.115,0,.23,0,.343.014a4.323,4.323,0,0,1,3.981,4.3,4.421,4.421,0,0,1-.059.719l-.266,1.6a4.163,4.163,0,0,0,2.812,4.642A6.621,6.621,0,0,0,287.31,59.483Z" transform="translate(-232.449 -44.171)" fill="#fec9a3"/>
  <path id="Path_801" data-name="Path 801" d="M318.524,59.558a7.655,7.655,0,0,1-7.655,7.655,7.74,7.74,0,0,1-1.733-.2,11.444,11.444,0,0,0,3.511-8.263v-5.1a11.413,11.413,0,0,0-1.435-5.561,4.323,4.323,0,0,1,3.981,4.3,4.421,4.421,0,0,1-.059.719l-.266,1.6a4.162,4.162,0,0,0,2.812,4.642A6.614,6.614,0,0,0,318.524,59.558Z" transform="translate(-263.663 -44.247)" fill="#fec093"/>
  <path id="Path_802" data-name="Path 802" d="M277.689,181.1v21.689H256V181.1a5.1,5.1,0,0,1,5.1-5.1h11.483a5.1,5.1,0,0,1,5.1,5.1Z" transform="translate(-219.001 -151.758)" fill="#d3669a"/>
  <path id="Path_803" data-name="Path 803" d="M277.689,183.558v21.689H256V194.8a54.409,54.409,0,0,0,18.718-15.878A5.105,5.105,0,0,1,277.689,183.558Z" transform="translate(-219.001 -154.212)" fill="#cc6395"/>
  <path id="Path_804" data-name="Path 804" d="M159.31,31.655v5.1a7.652,7.652,0,0,1-7.5,7.652c-.051,0-.105,0-.158,0A7.655,7.655,0,0,1,144,36.758v-5.1a7.655,7.655,0,0,1,15.31,0Z" transform="translate(-124.862 -23.999)" fill="#fec9a3"/>
  <path id="Path_805" data-name="Path 805" d="M189.737,31.648v5.1a7.652,7.652,0,0,1-7.5,7.652,11.411,11.411,0,0,0,1.939-6.382v-5.1a11.447,11.447,0,0,0-3.363-8.119q-.3-.3-.616-.573a7.658,7.658,0,0,1,9.537,7.422Z" transform="translate(-155.289 -23.992)" fill="#fec093"/>
  <g id="Group_9316" data-name="Group 9316" transform="translate(22.965 10.208)">
    <path id="Path_806" data-name="Path 806" d="M296,96h2.552v2.552H296Z" transform="translate(-275.587 -94.724)" fill="#7a432a"/>
    <path id="Path_807" data-name="Path 807" d="M328,96h2.552v2.552H328Z" transform="translate(-302.483 -94.724)" fill="#7a432a"/>
    <path id="Path_808" data-name="Path 808" d="M168,88h2.552v2.552H168Z" transform="translate(-168 -88)" fill="#7a432a"/>
    <path id="Path_809" data-name="Path 809" d="M200,88h2.552v2.552H200Z" transform="translate(-194.897 -88)" fill="#7a432a"/>
  </g>
  <path id="Path_810" data-name="Path 810" d="M144,104l2.308,2.308a2.982,2.982,0,0,0,3.442.558,2.983,2.983,0,0,1,1.333-.315h1.144a2.982,2.982,0,0,1,1.333.315,2.982,2.982,0,0,0,3.442-.558L159.31,104v6.379a5.1,5.1,0,0,1-5.1,5.1h-5.1a5.1,5.1,0,0,1-5.1-5.1Z" transform="translate(-124.862 -91.24)" fill="#92563a"/>
  <path id="Path_811" data-name="Path 811" d="M144,31.833a2.729,2.729,0,0,1,2.729-2.729h.454a2.729,2.729,0,0,1,1.22.288l1.4.7a2.729,2.729,0,0,0,1.22.288h1.37a2.728,2.728,0,0,0,1.036-.2l2.117-.868a2.729,2.729,0,0,1,3.764,2.525V29.49A5.49,5.49,0,0,0,153.82,24H149.49A5.49,5.49,0,0,0,144,29.49Z" transform="translate(-124.862 -23.999)" fill="#92563a"/>
  <path id="Path_812" data-name="Path 812" d="M141.689,181.1v21.689H120V181.1a5.1,5.1,0,0,1,5.1-5.1h11.483a5.1,5.1,0,0,1,5.1,5.1Z" transform="translate(-104.69 -151.758)" fill="#f35244"/>
  <path id="Path_813" data-name="Path 813" d="M141.689,182.784v21.689H120V190.726A54.626,54.626,0,0,0,138.367,178,5.108,5.108,0,0,1,141.689,182.784Z" transform="translate(-104.69 -153.439)" fill="#e64d40"/>
  <path id="Path_814" data-name="Path 814" d="M120,344h21.689v22.965H120Z" transform="translate(-104.69 -292.965)" fill="#f35244"/>
  <path id="Path_815" data-name="Path 815" d="M44.413,270.379v21.689H30.379V274.207H24v-3.827A6.379,6.379,0,0,1,30.379,264h7.655A6.384,6.384,0,0,1,44.413,270.379Z" transform="translate(-24 -225.724)" fill="#3b99fe"/>
  <path id="Path_816" data-name="Path 816" d="M78.034,278.457v21.689H64V284.981A46.446,46.446,0,0,0,75.8,273.61,6.355,6.355,0,0,1,78.034,278.457Z" transform="translate(-57.621 -233.801)" fill="#3b54ff"/>
  <path id="Path_817" data-name="Path 817" d="M64,440H78.034v7.655H64Z" transform="translate(-57.621 -373.655)" fill="#7a432a"/>
  <path id="Path_818" data-name="Path 818" d="M43.138,340.758H29.1a5.1,5.1,0,0,1-5.1-5.1V328h7.655v6.379H39.31l3.828-1.276Z" transform="translate(-24 -279.517)" fill="#fec9a3"/>
  <path id="Path_819" data-name="Path 819" d="M372.413,313.172H352V280h15.31l.518,4.15,2.033,16.264Z" transform="translate(-299.691 -239.172)" fill="#7eb457"/>
  <path id="Path_820" data-name="Path 820" d="M372.413,335.042H352V319.38a39.581,39.581,0,0,0,15.828-13.36l2.033,16.264Z" transform="translate(-299.691 -261.042)" fill="#79ad54"/>
  <path id="Path_821" data-name="Path 821" d="M318.379,280v16.586H312V286.379A6.379,6.379,0,0,1,318.379,280Z" transform="translate(-266.07 -239.172)" fill="#feb784"/>
  <path id="Path_822" data-name="Path 822" d="M394.207,280v14.034H384v6.379h11.482a5.1,5.1,0,0,0,5.1-5.1v-8.931A6.379,6.379,0,0,0,394.207,280Z" transform="translate(-326.587 -239.172)" fill="#feb784"/>
  <path id="Path_823" data-name="Path 823" d="M71.31,167.655v3.827a7.655,7.655,0,0,1-7.655,7.655c-.116,0-.233,0-.348-.008A7.655,7.655,0,0,1,56,171.483v-3.827A7.655,7.655,0,0,1,63.655,160q.337,0,.665.029A7.656,7.656,0,0,1,71.31,167.655Z" transform="translate(-50.897 -138.309)" fill="#fec9a3"/>
  <path id="Path_824" data-name="Path 824" d="M109.823,167.806v3.828a7.655,7.655,0,0,1-7.655,7.655c-.116,0-.233,0-.348-.008a11.437,11.437,0,0,0,2.923-7.653v-5.1a11.423,11.423,0,0,0-1.911-6.344A7.656,7.656,0,0,1,109.823,167.806Z" transform="translate(-89.409 -138.461)" fill="#fec093"/>
  <path id="Path_825" data-name="Path 825" d="M80,216h2.552v2.552H80Z" transform="translate(-71.069 -185.379)" fill="#7a432a"/>
  <path id="Path_826" data-name="Path 826" d="M112,216h2.552v2.552H112Z" transform="translate(-97.966 -185.379)" fill="#7a432a"/>
  <path id="Path_827" data-name="Path 827" d="M56,174.379v-2.552A3.828,3.828,0,0,1,59.828,168Z" transform="translate(-50.897 -145.034)" fill="#804a32"/>
  <path id="Path_828" data-name="Path 828" d="M71.31,157.1v3.827l-5.1-3.827H59.828A3.828,3.828,0,0,1,56,153.276V152H66.207A5.1,5.1,0,0,1,71.31,157.1Z" transform="translate(-50.897 -131.585)" fill="#92563a"/>
  <path id="Path_829" data-name="Path 829" d="M435.828,184H432v5.1h3.828v5.1a5.1,5.1,0,0,0,5.1,5.1V189.1A5.1,5.1,0,0,0,435.828,184Z" transform="translate(-366.932 -158.482)" fill="#f7a116"/>
  <path id="Path_830" data-name="Path 830" d="M375.31,183.655v3.827a7.654,7.654,0,0,1-6.847,7.612,7.55,7.55,0,0,1-.808.043A7.655,7.655,0,0,1,360,187.483v-3.827A7.655,7.655,0,0,1,367.655,176c.187,0,.372.006.555.021A7.655,7.655,0,0,1,375.31,183.655Z" transform="translate(-306.415 -151.758)" fill="#fec9a3"/>
  <path id="Path_831" data-name="Path 831" d="M418.58,183.764v3.828a7.654,7.654,0,0,1-6.847,7.612,11.429,11.429,0,0,0,2.246-6.821v-5.1a11.425,11.425,0,0,0-2.5-7.15A7.655,7.655,0,0,1,418.58,183.764Z" transform="translate(-349.685 -151.867)" fill="#fec093"/>
  <path id="Path_832" data-name="Path 832" d="M384,232h2.552v2.552H384Z" transform="translate(-326.587 -198.827)" fill="#7a432a"/>
  <path id="Path_833" data-name="Path 833" d="M416,232h2.552v2.552H416Z" transform="translate(-353.484 -198.827)" fill="#7a432a"/>
  <path id="Path_834" data-name="Path 834" d="M360,178.207s6.379,0,10.207-5.1a8.714,8.714,0,0,0,5.1,5.1v-2.552a7.655,7.655,0,1,0-15.31,0Z" transform="translate(-306.415 -145.034)" fill="#ffb531"/>
  <path id="Path_835" data-name="Path 835" d="M360,368h5.1v14.034H360Z" transform="translate(-306.415 -313.138)" fill="#fec9a3"/>
  <path id="Path_836" data-name="Path 836" d="M26.552,256h1.276a2.552,2.552,0,0,1,2.552,2.552V261.1H24v-2.552A2.552,2.552,0,0,1,26.552,256Z" transform="translate(-24 -218.999)" fill="#fec9a3"/>
  <path id="Path_837" data-name="Path 837" d="M150.965,360.241H128l2.1-10.5.453-2.262V341.1a5.1,5.1,0,0,1,5.1-5.1h7.655a5.088,5.088,0,0,1,3.609,1.494c.086.086.167.174.247.266a5.082,5.082,0,0,1,1.247,3.343v6.379Z" transform="translate(-111.414 -286.241)" fill="#f59898"/>
  <path id="Path_838" data-name="Path 838" d="M150.965,369.52H128l2.1-10.5a41.112,41.112,0,0,0,17.068-11.983,5.083,5.083,0,0,1,1.247,3.343v6.379Z" transform="translate(-111.414 -295.52)" fill="#ed9191"/>
  <path id="Path_839" data-name="Path 839" d="M145.276,388.758h5.1L149.1,376H144Z" transform="translate(-124.862 -319.862)" fill="#fec9a3"/>
  <path id="Path_840" data-name="Path 840" d="M221.1,388.758H216L217.276,376h5.1Z" transform="translate(-185.38 -319.862)" fill="#feb784"/>
  <path id="Path_841" data-name="Path 841" d="M120,260.758V253.1a5.1,5.1,0,0,1,5.1-5.1h3.828v5.1H125.1v2.552A5.1,5.1,0,0,1,120,260.758Z" transform="translate(-104.69 -212.275)" fill="#f57707"/>
  <path id="Path_842" data-name="Path 842" d="M167.31,231.655v2.552a7.655,7.655,0,1,1-15.31,0v-2.552a7.655,7.655,0,0,1,15.31,0Z" transform="translate(-131.587 -192.103)" fill="#fec9a3"/>
  <path id="Path_843" data-name="Path 843" d="M213.53,232.084v2.552a7.659,7.659,0,0,1-5.1,7.219,11.432,11.432,0,0,0,1.14-4.993v-5.1a11.435,11.435,0,0,0-2.577-7.248,7.656,7.656,0,0,1,6.54,7.574Z" transform="translate(-177.807 -192.531)" fill="#fec093"/>
  <path id="Path_844" data-name="Path 844" d="M176,280h2.552v2.552H176Z" transform="translate(-151.759 -239.172)" fill="#7a432a"/>
  <path id="Path_845" data-name="Path 845" d="M208,280h2.552v2.552H208Z" transform="translate(-178.656 -239.172)" fill="#7a432a"/>
  <path id="Path_846" data-name="Path 846" d="M167.31,224.931h-1.119a6.737,6.737,0,0,1-6.536-5.1,6.737,6.737,0,0,1-6.536,5.1H152v-1.276a7.655,7.655,0,1,1,15.31,0Z" transform="translate(-131.587 -185.379)" fill="#f98500"/>
  <path id="Path_847" data-name="Path 847" d="M287.31,207.655v2.552a7.655,7.655,0,0,1-7.114,7.636q-.268.019-.541.019A7.655,7.655,0,0,1,272,210.207v-2.552A7.655,7.655,0,0,1,279.655,200a7.347,7.347,0,0,1,.777.04A7.655,7.655,0,0,1,287.31,207.655Z" transform="translate(-232.449 -171.93)" fill="#fec9a3"/>
  <path id="Path_848" data-name="Path 848" d="M330.5,207.865v2.552a7.655,7.655,0,0,1-7.114,7.636,11.418,11.418,0,0,0,2.035-6.526v-5.1a11.432,11.432,0,0,0-1.8-6.173,7.655,7.655,0,0,1,6.878,7.615Z" transform="translate(-275.643 -172.14)" fill="#fec093"/>
  <path id="Path_849" data-name="Path 849" d="M284.053,201.276s-1.276,5.1,3.828,6.379a7.655,7.655,0,0,0-15.2-1.278C273.7,206.358,281.666,206.05,284.053,201.276Z" transform="translate(-233.02 -171.93)" fill="#92563a"/>
  <path id="Path_850" data-name="Path 850" d="M296,256h2.552v2.552H296Z" transform="translate(-252.622 -218.999)" fill="#7a432a"/>
  <path id="Path_851" data-name="Path 851" d="M328,256h2.552v2.552H328Z" transform="translate(-279.518 -218.999)" fill="#7a432a"/>
  <path id="Path_852" data-name="Path 852" d="M270.965,317.1v3.828h-5.1v7.655H253.1v-7.655H248V317.1a5.1,5.1,0,0,1,5.1-5.1h12.758a5.1,5.1,0,0,1,5.1,5.1Z" transform="translate(-212.277 -266.069)" fill="#3b99fe"/>
  <path id="Path_853" data-name="Path 853" d="M297.862,319.2v3.828h-5.1v7.655H280v-5.242A41.7,41.7,0,0,0,294.742,314.5,5.109,5.109,0,0,1,297.862,319.2Z" transform="translate(-239.173 -268.17)" fill="#3b54ff"/>
  <path id="Path_854" data-name="Path 854" d="M280,416h12.758v11.483H280Z" transform="translate(-239.173 -353.483)" fill="#7a432a"/>
  <path id="Path_855" data-name="Path 855" d="M312,440h2.552v7.655H312Z" transform="translate(-266.07 -373.655)" fill="#5c2e1a"/>
  <path id="Path_856" data-name="Path 856" d="M248,368h5.1v14.034H248Z" transform="translate(-212.277 -313.138)" fill="#fec9a3"/>
  <rect id="Rectangle_1932" data-name="Rectangle 1932" width="2.071" height="3.106" rx="1.035" transform="translate(40.459 51.994)" fill="#3247d9"/>
  <rect id="Rectangle_1933" data-name="Rectangle 1933" width="2.071" height="3.106" rx="1.035" transform="translate(53.919 51.994)" fill="#3247d9"/>
</svg>
