<svg id="Female_Student" data-name="Female Student" xmlns="http://www.w3.org/2000/svg" width="65.972" height="74" viewBox="0 0 65.972 74">
  <path id="Path_947" data-name="Path 947" d="M67.74,23.422a38.045,38.045,0,0,1-28.762,4.619v5.327a13.219,13.219,0,0,0,.3,2.779l.9,4.1a39.782,39.782,0,0,0,1.611,6.478,13.034,13.034,0,0,0,24.134,0,39.781,39.781,0,0,0,1.61-6.478l.9-4.1c.2-.915.3-1.847.3-6.942V22.817Z" transform="translate(-20.864 -10.295)" fill="#fde4e4"/>
  <g id="Group_9328" data-name="Group 9328" transform="translate(2.897 0)">
    <path id="Path_948" data-name="Path 948" d="M36.2,24a4.1,4.1,0,0,1,.55.042v.776a13.01,13.01,0,0,0,.183,2.165,13.136,13.136,0,0,1-.182-2.163V19.494a38.045,38.045,0,0,0,28.762-4.619l.981-.605v6.387c0,3.665-.052,5.171-.155,6.072a12.933,12.933,0,0,0,.155-1.909v-.789a3.743,3.743,0,0,1,.4-.03,4.033,4.033,0,0,1,2.853,1.177v-5.3a18.127,18.127,0,0,0-36.255,0v5.171A4.03,4.03,0,0,1,36.2,24Z" transform="translate(-21.539 -1.748)" fill="#515c66"/>
    <path id="Path_949" data-name="Path 949" d="M87.371,50.873a4.005,4.005,0,0,1-4.433.807,39.12,39.12,0,0,1-1.6,6.422A13,13,0,0,1,77,63.663l.654,5.1a4.013,4.013,0,0,0,.457,1.387,4.587,4.587,0,0,0,.407.626c1.172,1.527,2.865,1.591,4.307,1.8,1.275.141,2.571.21,3.827.32a32.682,32.682,0,0,1,5.8.773,13.326,13.326,0,0,1,6.907,4.569V73.29a12.815,12.815,0,0,0-6-10.85,12.813,12.813,0,0,1-6-10.847Z" transform="translate(-39.185 -21.676)" fill="#515c66"/>
    <path id="Path_950" data-name="Path 950" d="M20.284,72.745c3.241-.886,6.686-.773,10.02-1.158a4.972,4.972,0,0,0,3.9-1.74,4.09,4.09,0,0,0,.885-2l.651-5.1a13,13,0,0,1-4.339-5.56,39.843,39.843,0,0,1-1.611-6.478l-.458-2.1.457,2.1a4.023,4.023,0,0,1-4.421-.618v.584a12.813,12.813,0,0,1-6,10.85,12.815,12.815,0,0,0-5.994,10.849v4.937a13.326,13.326,0,0,1,6.909-4.566Z" transform="translate(-13.375 -20.759)" fill="#515c66"/>
  </g>
  <path id="Path_951" data-name="Path 951" d="M36.131,42.788a13.007,13.007,0,0,1-.3-2.78v-.776a4.1,4.1,0,0,0-.55-.042,4.047,4.047,0,1,0,1.744,7.695Z" transform="translate(-17.718 -16.937)" fill="#fcced3"/>
  <g id="Group_9329" data-name="Group 9329" transform="translate(23.971 20.506)">
    <path id="Path_952" data-name="Path 952" d="M62.858,49.295h1.164a1.04,1.04,0,0,0,0-2.08H62.907l.416-2.739a1.04,1.04,0,1,0-2.057-.311l-.421,2.785a2.039,2.039,0,0,0,2.014,2.345Z" transform="translate(-53.696 -39.102)" fill="#515c66"/>
    <path id="Path_953" data-name="Path 953" d="M53.785,38.728A2.477,2.477,0,1,0,51.309,41.2,2.477,2.477,0,0,0,53.785,38.728Z" transform="translate(-48.832 -36.251)" fill="#515c66"/>
    <path id="Path_954" data-name="Path 954" d="M73.31,36.252a2.477,2.477,0,1,0,2.477,2.476A2.477,2.477,0,0,0,73.31,36.252Z" transform="translate(-57.757 -36.251)" fill="#515c66"/>
    <path id="Path_955" data-name="Path 955" d="M63.622,57.673a4.689,4.689,0,0,1-6.33,0,1.04,1.04,0,0,0-1.6,1.322,6.717,6.717,0,0,0,9.54,0,1.039,1.039,0,0,0-1.6-1.322Z" transform="translate(-51.517 -44.787)" fill="#515c66"/>
  </g>
  <path id="Path_956" data-name="Path 956" d="M88.6,39.19a3.746,3.746,0,0,0-.4.03v.789a13.222,13.222,0,0,1-.3,2.779l-.9,4.1-.012.059A4.042,4.042,0,1,0,88.6,39.19Z" transform="translate(-40.341 -16.937)" fill="#fcced3"/>
  <path id="Path_957" data-name="Path 957" d="M56.179,90.436s8.068-4.346,11.308-9.562A3.926,3.926,0,0,1,65.5,79.5a4.587,4.587,0,0,1-.407-.626,4.013,4.013,0,0,1-.457-1.387l-.654-5.1a12.989,12.989,0,0,1-15.453,0l-.654,5.1a4.09,4.09,0,0,1-.885,2,4.571,4.571,0,0,1-2.084,1.433C48.167,86.119,56.179,90.436,56.179,90.436Z" transform="translate(-23.268 -30.405)" fill="#fcced3"/>
  <path id="Path_958" data-name="Path 958" d="M67.4,87.086a13.584,13.584,0,0,1-2.318-.423c-3.237,5.216-11.3,9.562-11.3,9.562s-8.012-4.317-11.271-9.509a5.853,5.853,0,0,1-1.813.307c-.568.065-1.139.114-1.712.158v23.011h29.74V87.2C68.282,87.168,67.839,87.135,67.4,87.086Z" transform="translate(-20.866 -36.195)" fill="#3b54ff"/>
  <g id="Group_9330" data-name="Group 9330" transform="translate(0 50.987)">
    <path id="Path_959" data-name="Path 959" d="M18.307,88.535A13.327,13.327,0,0,0,8.5,101.383v9.164H26.614V87.535A44.41,44.41,0,0,0,18.307,88.535Z" transform="translate(-8.5 -87.535)" fill="#3b99fe"/>
    <path id="Path_960" data-name="Path 960" d="M107.136,101.4A13.327,13.327,0,0,0,97.33,88.552a32.681,32.681,0,0,0-5.8-.773c-.824-.072-1.664-.133-2.5-.2v22.988h18.114Z" transform="translate(-41.165 -87.552)" fill="#3b99fe"/>
  </g>
</svg>
