<svg xmlns="http://www.w3.org/2000/svg" width="70" height="70" viewBox="0 0 70 70">
  <g id="_002-building" data-name="002-building" style="isolation: isolate">
    <path id="Path_985" data-name="Path 985" d="M453.1,403.051v11.074a2.051,2.051,0,0,1-4.1,0V403.051a2.051,2.051,0,0,1,4.1,0Z" transform="translate(-387.613 -346.176)" fill="#3b54ff"/>
    <path id="Path_986" data-name="Path 986" d="M466.051,403.051v11.074A2.051,2.051,0,0,1,464,416.176V401A2.052,2.052,0,0,1,466.051,403.051Z" transform="translate(-400.563 -346.176)" fill="#515c66"/>
    <path id="Path_987" data-name="Path 987" d="M429.125,263.423v15.313a2.052,2.052,0,0,1-2.051,2.051h-9.023A2.052,2.052,0,0,1,416,278.735V263.423a6.3,6.3,0,0,1,1.981-4.575,6.594,6.594,0,0,1,9.163,0A6.3,6.3,0,0,1,429.125,263.423Z" transform="translate(-359.125 -221.86)" fill="#75ff70"/>
    <path id="Path_988" data-name="Path 988" d="M470.563,263.426v15.313a2.051,2.051,0,0,1-2.051,2.051H464V257A6.537,6.537,0,0,1,470.563,263.426Z" transform="translate(-400.563 -221.863)" fill="#3bff42"/>
    <path id="Path_989" data-name="Path 989" d="M365.781,482H347.051a2.051,2.051,0,0,0,0,4.1h18.731a2.051,2.051,0,0,0,0-4.1Z" transform="translate(-297.832 -416.102)" fill="#2c3fbf"/>
    <path id="Path_990" data-name="Path 990" d="M52.363,2.051V70H2.051A2.052,2.052,0,0,1,0,67.949V2.051A2.052,2.052,0,0,1,2.051,0H50.312A2.052,2.052,0,0,1,52.363,2.051Z" fill="#3b99fe"/>
    <path id="Path_991" data-name="Path 991" d="M218.113,2.051V70H192V0h24.062A2.052,2.052,0,0,1,218.113,2.051Z" transform="translate(-165.75)" fill="#3b54ff"/>
    <path id="Path_992" data-name="Path 992" d="M77.988,65H67.051A2.051,2.051,0,0,0,65,67.051V75.8a2.051,2.051,0,0,0,2.051,2.051H77.988A2.051,2.051,0,0,0,80.039,75.8v-8.75A2.051,2.051,0,0,0,77.988,65Z" transform="translate(-56.113 -56.113)" fill="#e0eaef"/>
    <path id="Path_993" data-name="Path 993" d="M221.988,65H211.051A2.051,2.051,0,0,0,209,67.051V75.8a2.051,2.051,0,0,0,2.051,2.051h10.938a2.051,2.051,0,0,0,2.051-2.051v-8.75A2.051,2.051,0,0,0,221.988,65Z" transform="translate(-180.426 -56.113)" fill="#cce0e5"/>
    <path id="Path_994" data-name="Path 994" d="M221.988,193H211.051A2.051,2.051,0,0,0,209,195.051v8.75a2.051,2.051,0,0,0,2.051,2.051h10.938a2.051,2.051,0,0,0,2.051-2.051v-8.75A2.051,2.051,0,0,0,221.988,193Z" transform="translate(-180.426 -166.613)" fill="#cce0e5"/>
    <path id="Path_995" data-name="Path 995" d="M77.988,193H67.051A2.051,2.051,0,0,0,65,195.051v8.75a2.051,2.051,0,0,0,2.051,2.051H77.988a2.051,2.051,0,0,0,2.051-2.051v-8.75A2.051,2.051,0,0,0,77.988,193Z" transform="translate(-56.113 -166.613)" fill="#e0eaef"/>
    <path id="Path_996" data-name="Path 996" d="M67.051,433A2.052,2.052,0,0,0,65,435.051v8.75h4.1v-8.75A2.051,2.051,0,0,0,67.051,433Z" transform="translate(-56.113 -373.801)" fill="#e0eaef"/>
    <path id="Path_997" data-name="Path 997" d="M291.051,433A2.052,2.052,0,0,0,289,435.051v8.75h4.1v-8.75A2.052,2.052,0,0,0,291.051,433Z" transform="translate(-249.488 -373.801)" fill="#cce0e5"/>
    <path id="Path_998" data-name="Path 998" d="M146.227,345.613v15.312H129V345.613a8.613,8.613,0,1,1,17.227,0Z" transform="translate(-111.363 -290.926)" fill="#ffdb4d"/>
    <path id="Path_999" data-name="Path 999" d="M200.613,345.613v15.312H192V337A8.623,8.623,0,0,1,200.613,345.613Z" transform="translate(-165.75 -290.926)" fill="#ffbe3b"/>
  </g>
</svg>
