<svg xmlns="http://www.w3.org/2000/svg" width="73.291" height="70" viewBox="0 0 73.291 70">
  <g id="hindu" transform="translate(0 -11.493)" style="isolation: isolate">
    <path id="Path_1038" data-name="Path 1038" d="M71.64,137.234c-2.1-5.937-7.27-11.247-14.017-10.036-8.765,1.574-12.421,13.533-22.13,15.509a11.736,11.736,0,0,0-5.114-3.039,12.125,12.125,0,0,0,3.7-4.554,13.479,13.479,0,0,0,.73-8.991,10.391,10.391,0,0,0-7.654-7.825c-5.62-1.537-13.056.694-17.3,5.186l5.5,5.424c2.507-2.657,10.2-5.616,12.038-.891,1.68,4.311-1.727,8.775-6.851,9.446l1.091,7.569c6.107.357,9.684,5.3,9.063,11.315a9.46,9.46,0,0,1-9.308,8.435h-.048c-10.768.52-17.8-12.4-20.493-18.438a.445.445,0,0,0-.845.247c2.718,19.027,12.612,25.957,21.3,26h.087a16.9,16.9,0,0,0,11.193-4.279A17.191,17.191,0,0,0,38.3,157.169a19.342,19.342,0,0,0-.433-7.363s5.061-.674,10.469-6.372c2.956-3.114,7.962-9.969,12.667-8.253,7.228,2.637,6.136,17.842,1.837,24.427-4.27,6.542-13.394,4.715-17.871-.453a.593.593,0,0,0-1.022.542c.968,3.506,2.679,6.975,5.518,8.977,7.882,5.559,16.059.4,19.974-6.383A31.264,31.264,0,0,0,71.64,137.234Z" transform="translate(0 -91.103)" fill="#3b99fe"/>
    <g id="Group_9363" data-name="Group 9363" transform="translate(19.183 26.714)">
      <path id="Path_1039" data-name="Path 1039" d="M149.095,118.308a10.391,10.391,0,0,1,7.654,7.825,13.48,13.48,0,0,1-.73,8.991,12.125,12.125,0,0,1-3.7,4.554c2.668.519,6.021,3.826,6.021,3.826a8.489,8.489,0,0,0,3.517-.787,12.235,12.235,0,0,0-5.114-3.039,12.125,12.125,0,0,0,3.7-4.554,13.479,13.479,0,0,0,.73-8.991,10.39,10.39,0,0,0-7.654-7.825,15.542,15.542,0,0,0-6.047-.334,13.247,13.247,0,0,1,1.623.334Z" transform="translate(-145.545 -117.826)" fill="#3b54ff"/>
      <path id="Path_1040" data-name="Path 1040" d="M396.29,192.362c-2.1-5.937-7.27-11.247-14.017-10.035-.106.019-.211.041-.316.063,4.714,1.033,8.258,5.309,9.909,9.972a31.263,31.263,0,0,1-2.2,25.058c-2.369,4.1-6.3,7.613-10.779,8.513,6.238,1.279,12.079-3.1,15.2-8.513A31.264,31.264,0,0,0,396.29,192.362Z" transform="translate(-343.833 -172.945)" fill="#3b54ff"/>
      <path id="Path_1041" data-name="Path 1041" d="M307.893,405.363a.593.593,0,0,0-1.022.542,24.314,24.314,0,0,0,.935,2.756,12.235,12.235,0,0,0,7.8,1.137A13.912,13.912,0,0,1,307.893,405.363Z" transform="translate(-282.107 -364.024)" fill="#3b54ff"/>
      <path id="Path_1042" data-name="Path 1042" d="M163.165,245.758c2.155-2.27,5.4-6.528,8.822-8a5.965,5.965,0,0,0-.58-.249c-4.7-1.716-9.711,5.139-12.667,8.253-5.408,5.7-10.469,6.372-10.469,6.372a19.348,19.348,0,0,1,.433,7.363,17.191,17.191,0,0,1-5.715,11.148,16.978,16.978,0,0,1-8.978,4.13,16.505,16.505,0,0,0,2.122.149h.087a16.9,16.9,0,0,0,11.193-4.279,17.191,17.191,0,0,0,5.715-11.148,19.342,19.342,0,0,0-.433-7.363S157.757,251.456,163.165,245.758Z" transform="translate(-134.012 -220.141)" fill="#3b54ff"/>
    </g>
    <path id="Path_1043" data-name="Path 1043" d="M248.129,96.983c-12.256-.835-13.55-11.129-13.88-11.448l.027.026-.027-.026c.314.292,10.487,9.557,23.774,1.232l3.168,7.109A30.778,30.778,0,0,1,248.129,96.983Z" transform="translate(-200.717 -63.443)" fill="#3b99fe"/>
    <g id="Group_9364" data-name="Group 9364" transform="translate(45.89 23.324)">
      <path id="Path_1044" data-name="Path 1044" d="M332,94.142a24.9,24.9,0,0,1-3.589,1.873l2.333,5.236a32.338,32.338,0,0,1-10.16,2.946c.488.069.993.124,1.521.16a30.777,30.777,0,0,0,13.063-3.106Z" transform="translate(-320.585 -94.142)" fill="#3b54ff"/>
    </g>
    <path id="Path_1045" data-name="Path 1045" d="M282.822,22.33,277.571,17.2l5.484-5.709,5.353,5.3Z" transform="translate(-237.838 0)" fill="#3b99fe"/>
    <path id="Path_1046" data-name="Path 1046" d="M301.152,11.493l-2.157,2.246,3.086,3.058-3.389,3.357,2.228,2.176L306.5,16.8Z" transform="translate(-255.936 0)" fill="#3b54ff"/>
  </g>
</svg>
