<svg id="Male_Student" data-name="Male Student" xmlns="http://www.w3.org/2000/svg" width="70.28" height="74" viewBox="0 0 70.28 74">
  <path id="Path_961" data-name="Path 961" d="M120.643,25.05c-.019-1.226.026-1.977.026-1.977A30.227,30.227,0,0,0,129.5,11.068s5.45,8.288,18.226,11.916c0,0,.053.8.038,2.1a3.108,3.108,0,0,1,3.727.318C157.708,5.367,139.744.3,135.1.016A9.78,9.78,0,0,0,127.295,3.6c-4.373-3.36-9.216.672-10.934,6.944-1.051,3.839-.312,10.476.419,15.048a3.071,3.071,0,0,1,3.862-.543Zm0,0" transform="translate(-99.096 0)" fill="#945b44"/>
  <path id="Path_962" data-name="Path 962" d="M330.483,171.717a3.11,3.11,0,0,0-4.31-.982,35.739,35.739,0,0,1-1.787,11.11C330.767,183.986,332.713,174.818,330.483,171.717Zm0,0" transform="translate(-277.503 -145.655)" fill="#ffbd86"/>
  <path id="Path_963" data-name="Path 963" d="M118.685,170.706a3.1,3.1,0,0,0-4.247,1.013c-2.228,3.1-.287,12.256,6.083,10.132a35.962,35.962,0,0,1-1.836-11.145Zm0,0" transform="translate(-97.138 -145.656)" fill="#ffbd86"/>
  <path id="Path_964" data-name="Path 964" d="M325.135,200.381c-.207.835-.454,1.675-.749,2.5,5.261,1.765,7.507-4.157,6.883-8.028C330.81,198.013,328.784,201.142,325.135,200.381Zm0,0" transform="translate(-277.502 -166.689)" fill="#ffa664"/>
  <path id="Path_965" data-name="Path 965" d="M113.654,194.855c-.623,3.868,1.618,9.783,6.87,8.032-.3-.824-.548-1.664-.759-2.5C116.13,201.132,114.112,198.01,113.654,194.855Zm0,0" transform="translate(-97.141 -166.692)" fill="#ffa664"/>
  <path id="Path_966" data-name="Path 966" d="M199.658,299.511a11.141,11.141,0,0,1-7.389-2.5v6.44a7.351,7.351,0,0,0,14.7,0v-6.441A11.151,11.151,0,0,1,199.658,299.511Zm0,0" transform="translate(-164.481 -254.084)" fill="#ffbd86"/>
  <path id="Path_967" data-name="Path 967" d="M176.141,88.494s1.48,22.393-13.456,22.443-13.6-22.353-13.6-22.353a30.227,30.227,0,0,0,8.834-12.006s5.451,8.288,18.226,11.916Zm0,0" transform="translate(-127.508 -65.51)" fill="#fed2a4"/>
  <path id="Path_968" data-name="Path 968" d="M162.685,179.876c-11.635.039-13.4-13.545-13.61-19.552-.073,1.575-.759,22.3,13.61,22.254,13.87-.046,13.584-19.356,13.472-22.113-.208,6.119-1.984,19.373-13.472,19.411Zm0,0" transform="translate(-127.507 -137.152)" fill="#ffbd86"/>
  <path id="Path_969" data-name="Path 969" d="M192.27,297.013v2.7a12.052,12.052,0,0,0,14.7,0v-2.7a12.063,12.063,0,0,1-14.7,0Zm0,0" transform="translate(-164.481 -254.085)" fill="#ffa664"/>
  <path id="Path_970" data-name="Path 970" d="M65.8,354.941c-4.042-3.268-23.307-13.363-23.307-13.363a7.351,7.351,0,1,1-14.7,0S8.525,351.673,4.482,354.941c-3.247,2.626-4.219,8.3-4.476,10.436a.744.744,0,0,0,.74.832h68.79a.744.744,0,0,0,.74-.832c-.257-2.133-1.229-7.81-4.477-10.436Zm0,0" transform="translate(-0.001 -292.209)" fill="#3b54ff"/>
  <path id="Path_971" data-name="Path 971" d="M.3,493.305c-.144.75-.236,1.4-.293,1.87a.744.744,0,0,0,.74.832h68.79a.744.744,0,0,0,.74-.832c-.057-.473-.149-1.12-.294-1.87Zm0,0" transform="translate(-0.001 -422.007)" fill="#3b99fe"/>
  <path id="Path_972" data-name="Path 972" d="M186.013,160.023a1.891,1.891,0,1,0-1.849,2.287A2.081,2.081,0,0,0,186.013,160.023Zm0,0" transform="translate(-155.966 -134.937)" fill="#515c66"/>
  <path id="Path_973" data-name="Path 973" d="M280.215,162.309a2.34,2.34,0,1,0-1.848-2.288A2.081,2.081,0,0,0,280.215,162.309Zm0,0" transform="translate(-238.134 -134.937)" fill="#515c66"/>
  <path id="Path_974" data-name="Path 974" d="M227.939,183.814c.115,0,.231,0,.351-.007a1.126,1.126,0,0,0-.094-2.25c-.55.023-1.519-.01-1.818-.486-.386-.613.058-2.071.48-2.864a1.126,1.126,0,0,0-1.983-1.066c-.171.318-1.636,3.159-.406,5.124A3.779,3.779,0,0,0,227.939,183.814Zm0,0" transform="translate(-191.61 -151.032)" fill="#ffa664"/>
  <path id="Path_975" data-name="Path 975" d="M200.056,233.959a1.126,1.126,0,0,0-.324,1.559,7.232,7.232,0,0,0,12.23,0,1.126,1.126,0,0,0-1.88-1.239,4.981,4.981,0,0,1-8.467,0A1.126,1.126,0,0,0,200.056,233.959Zm0,0" transform="translate(-170.706 -199.987)" fill="#ff646f"/>
</svg>
