<svg id="Man_Job_Holder" data-name="Man Job Holder" xmlns="http://www.w3.org/2000/svg" width="74.35" height="74" viewBox="0 0 74.35 74">
  <path id="Path_878" data-name="Path 878" d="M75.813,344l24.542,12.3a9.976,9.976,0,0,1,5.4,7.513l.59,4.137H32l.59-4.137a9.976,9.976,0,0,1,5.4-7.513L62.536,344Z" transform="translate(-32 -293.945)" fill="#3b54ff"/>
  <path id="Path_879" data-name="Path 879" d="M216,344h13.3v23.945H216Z" transform="translate(-185.477 -293.945)" fill="#f0f4f8"/>
  <path id="Path_880" data-name="Path 880" d="M209.33,312v5.321L208,321.312v1.33h15.964v-1.33l-1.33-3.991V312Z" transform="translate(-178.807 -267.224)" fill="#fdc9a6"/>
  <path id="Path_881" data-name="Path 881" d="M229.3,312v3.266l-.042.028A11.789,11.789,0,0,1,216,315.266V312Z" transform="translate(-185.477 -267.216)" fill="#fdc9a6"/>
  <path id="Path_882" data-name="Path 882" d="M229.3,312v3.266l-.042.028A11.789,11.789,0,0,1,216,315.266V312Z" transform="translate(-185.477 -267.216)" fill="#e6af89"/>
  <path id="Path_883" data-name="Path 883" d="M72,454.652V449.33a1.33,1.33,0,1,1,2.661,0v5.321Z" transform="translate(-65.349 -380.652)" fill="#2c3fbf"/>
  <path id="Path_884" data-name="Path 884" d="M424,454.652V449.33a1.33,1.33,0,1,1,2.661,0v5.321Z" transform="translate(-358.962 -380.652)" fill="#2c3fbf"/>
  <path id="Path_885" data-name="Path 885" d="M230.857,378.09l1.52,4.561H237.7l1.52-4.561L235.038,376Z" transform="translate(-197.863 -320.598)" fill="#3b99fe"/>
  <path id="Path_886" data-name="Path 886" d="M233.33,416,232,427.973h7.982L238.651,416Z" transform="translate(-198.816 -353.973)" fill="#3247d9"/>
  <path id="Path_887" data-name="Path 887" d="M181.76,63.694l.569-2.261a15.283,15.283,0,0,0-3.253-13.716A13.991,13.991,0,0,0,164.7,42.472l-2.6.6a12.644,12.644,0,0,0-8.449,6.662H153.3a7.275,7.275,0,0,0-7.2,8.3l.9,6.329.484,3.991h32.79l1.095-3.327Q181.59,64.371,181.76,63.694Z" transform="translate(-127.138 -42.107)" fill="#515c66"/>
  <path id="Path_888" data-name="Path 888" d="M189.3,147.309a11.79,11.79,0,0,1-10.946-7.411A32.951,32.951,0,0,1,176,127.66v-9.617l3.991-6.773a22.627,22.627,0,0,0,16.144,6.773h6.471v9.618a32.952,32.952,0,0,1-2.357,12.24A11.79,11.79,0,0,1,189.3,147.309Z" transform="translate(-152.128 -99.813)" fill="#fdc9a6"/>
  <g id="Group_9318" data-name="Group 9318" transform="translate(27.863 20.889)">
    <path id="Path_889" data-name="Path 889" d="M277.321,170.661H273.33a1.33,1.33,0,0,1,0-2.661h3.991a1.33,1.33,0,1,1,0,2.661Z" transform="translate(-260.027 -168)" fill="#515c66"/>
    <circle id="Ellipse_41" data-name="Ellipse 41" cx="1.663" cy="1.663" r="1.663" transform="translate(13.303 3.991)" fill="#515c66"/>
    <path id="Path_890" data-name="Path 890" d="M205.321,170.661H201.33a1.33,1.33,0,0,1,0-2.661h3.991a1.33,1.33,0,1,1,0,2.661Z" transform="translate(-200 -168)" fill="#515c66"/>
    <circle id="Ellipse_42" data-name="Ellipse 42" cx="1.663" cy="1.663" r="1.663" transform="translate(1.995 3.991)" fill="#515c66"/>
  </g>
  <path id="Path_891" data-name="Path 891" d="M238.651,266.661H233.33a1.33,1.33,0,1,1,0-2.661h5.321a1.33,1.33,0,1,1,0,2.661Z" transform="translate(-198.816 -227.178)" fill="#e6af89"/>
  <path id="Path_892" data-name="Path 892" d="M243.991,214.651H241.33a1.33,1.33,0,0,1-1.33-1.33V209.33a1.33,1.33,0,0,1,2.661,0v2.661h1.33a1.33,1.33,0,0,1,0,2.661Z" transform="translate(-205.486 -180.474)" fill="#e6af89"/>
  <path id="Path_893" data-name="Path 893" d="M149.321,176h-1.838A3.483,3.483,0,0,0,144,179.483v2.347a3.483,3.483,0,0,0,3.483,3.483h2.337Z" transform="translate(-125.416 -153.786)" fill="#fdc9a6"/>
  <path id="Path_894" data-name="Path 894" d="M333.5,176h1.838a3.483,3.483,0,0,1,3.483,3.483v2.347a3.482,3.482,0,0,1-3.483,3.483H333Z" transform="translate(-283.055 -153.786)" fill="#fdc9a6"/>
  <path id="Path_895" data-name="Path 895" d="M209.33,344l6.651,5.321L208,353.312v-5.321Z" transform="translate(-178.798 -293.912)" fill="#a6bcd0"/>
  <path id="Path_896" data-name="Path 896" d="M262.651,344,256,349.321l7.982,3.991v-5.321Z" transform="translate(-218.834 -293.912)" fill="#a6bcd0"/>
  <path id="Path_897" data-name="Path 897" d="M162.642,367.945h-6.651L152,355.973,162.642,344Z" transform="translate(-132.091 -293.945)" fill="#3b99fe"/>
  <path id="Path_898" data-name="Path 898" d="M296,367.945h6.651l3.991-11.973L296,344Z" transform="translate(-252.201 -293.945)" fill="#3b99fe"/>
</svg>
