<svg xmlns="http://www.w3.org/2000/svg" width="69.726" height="70" viewBox="0 0 69.726 70">
  <g id="muslim" transform="translate(-1 0.001)" style="isolation: isolate">
    <path id="Path_1020" data-name="Path 1020" d="M28.826,42.051a38.162,38.162,0,0,1-8.759-40.1A1.448,1.448,0,0,0,17.9.249,38.012,38.012,0,1,0,70.48,53a1.447,1.447,0,0,0-1.71-2.155,37.81,37.81,0,0,1-39.944-8.8Z" transform="translate(0 0)" fill="#3b99fe"/>
    <g id="Group_9352" data-name="Group 9352" transform="translate(2.367 42.103)">
      <path id="Path_1021" data-name="Path 1021" d="M77.4,316.7a37.8,37.8,0,0,1-8.437,2.057A37.868,37.868,0,0,1,11,307.957a37.877,37.877,0,0,0,68.113,10.9A1.447,1.447,0,0,0,77.4,316.7Z" transform="translate(-11 -307.957)" fill="#3b54ff"/>
    </g>
    <path id="Path_1022" data-name="Path 1022" d="M271.534,88.827l5.533.807a1.179,1.179,0,0,1,.656,2.01l-4.012,3.926a1.178,1.178,0,0,0-.338,1.041l.946,5.536a1.181,1.181,0,0,1-1.717,1.241l-4.937-2.605a1.183,1.183,0,0,0-1.1,0l-4.937,2.605a1.181,1.181,0,0,1-1.717-1.241l.946-5.536a1.178,1.178,0,0,0-.338-1.041L256.5,91.644a1.179,1.179,0,0,1,.656-2.01l5.533-.807a1.182,1.182,0,0,0,.89-.648l2.47-5.023a1.182,1.182,0,0,1,2.121,0l2.47,5.023A1.182,1.182,0,0,0,271.534,88.827Z" transform="translate(-220.264 -71.219)" fill="#3b99fe"/>
    <g id="Group_9353" data-name="Group 9353" transform="translate(39.626 17.809)">
      <path id="Path_1023" data-name="Path 1023" d="M301.352,132.882a1.179,1.179,0,0,0-.656-2.01l-4.159-.607-1.149,1.124a4.491,4.491,0,0,0-1.287,3.967l.249,1.459a2.366,2.366,0,0,1-3.439,2.486l-1.258-.664a4.51,4.51,0,0,0-4.209,0l-1.205.636-.7,4.111a1.181,1.181,0,0,0,1.717,1.241l4.937-2.605a1.183,1.183,0,0,1,1.1,0l4.937,2.605a1.181,1.181,0,0,0,1.717-1.241L297,137.849a1.179,1.179,0,0,1,.338-1.041Z" transform="translate(-283.518 -130.266)" fill="#3b54ff"/>
    </g>
  </g>
</svg>
