<svg id="Small_Family" data-name="Small Family" xmlns="http://www.w3.org/2000/svg" width="73.999" height="74" viewBox="0 0 73.999 74">
  <path id="Path_899" data-name="Path 899" d="M275.809,35.7h-6.524a1.8,1.8,0,0,1-1.8-1.8l-.9-15.214s-1.453-12.6,6.082-14.258c0,0,3.064-5.962,12.875-4.052a3.813,3.813,0,0,1,.393.115,14.917,14.917,0,0,1,6.109,3.68c5.343,5.317,4.269,11.6,4.4,12.38,0,4.364.069-.487-.9,17.35a1.8,1.8,0,0,1-1.8,1.8h-6.94" transform="translate(-227.965 -0.002)" fill="#7f7369"/>
  <path id="Path_900" data-name="Path 900" d="M276.94,35.776V33.641a11.291,11.291,0,0,1-6.759-9.776c0-.028-.006-.116-.006-.132-.006-.148-.01-.3-.01-.445,0-6.717,0-6.31.005-6.42-.067-3.585.487-11.106,6.19-12.359,0,0,1.877-3.652,7.4-4.324-4.207-.462-9.142.788-11.088,4.324-5.085,1.118-6.308,7.309-6.187,12.485q0,.108.006.211c.03.96.1,1.563.1,1.563l.9,15.214a1.8,1.8,0,0,0,1.8,1.8Z" transform="translate(-227.963 -0.078)" fill="#72655a"/>
  <path id="Path_901" data-name="Path 901" d="M32.994,264.974l1.93-17.247c.676-5.208.4-7.209,2.08-9.248a7.724,7.724,0,0,0-1.748-1.518l-.054-.013c-1.817-1.088-3.347-1.134-6.723-2.063h0l-3.453-1.653h0v-4.124a11.32,11.32,0,0,1-9,.024h0l-.015,4.118h0l-3.438,1.636h0c-3.355.923-4.9.972-6.723,2.063l-.054.013a4.826,4.826,0,0,0-.475.333c-2.6,1.868-2.643,4.294-2.867,6.087l-1.033,9.234h0C-.039,265.83,0,264.767,0,265.785a3.993,3.993,0,0,0,4.132,4.209h0c.29,0,32.62,0,32.867,0C34.2,269.945,32.749,267.809,32.994,264.974Z" transform="translate(-0.004 -195.995)" fill="#dd9a5e"/>
  <g id="Group_9319" data-name="Group 9319" transform="translate(0 33.137)">
    <path id="Path_902" data-name="Path 902" d="M3.726,305.488c-.025-1.457.28-1.441,2.562-25.087a6.616,6.616,0,0,1,2.538-4.877,10.02,10.02,0,0,0-2.983,1.132l-.054.013a4.835,4.835,0,0,0-.475.333c-2.6,1.868-2.643,4.294-2.867,6.087C2.43,283.252,0,304.778,0,305.493A3.993,3.993,0,0,0,4.136,309.7H7.858A3.98,3.98,0,0,1,3.726,305.488Z" transform="translate(-0.003 -268.839)" fill="#d38d54"/>
    <path id="Path_903" data-name="Path 903" d="M114.442,236.911v-6.746a11.2,11.2,0,0,1-3.709-.894l-.015,4.118h0Z" transform="translate(-94.717 -229.271)" fill="#d38d54"/>
  </g>
  <path id="Path_904" data-name="Path 904" d="M269.078,267.632c-2.629-23.283-2.481-22.625-2.716-23.764a6.458,6.458,0,0,0-3.042-4.249l-.054-.013a9.182,9.182,0,0,0-2.179-.932l-7.581-1.887a.977.977,0,0,1-.417-.9v-3.656a11.314,11.314,0,0,1-9-.019v3.676a.977.977,0,0,1-.417.9c-6.413,1.708-7.839,1.668-9.759,2.819l-.054.013a6.612,6.612,0,0,0-3.224,5.369L228.1,267.632c-.254,2.935,1.3,5.021,4.1,5.021h32.773a3.993,3.993,0,0,0,4.132-4.209v-.005A7.917,7.917,0,0,0,269.078,267.632Z" transform="translate(-195.108 -198.653)" fill="#eab883"/>
  <path id="Path_905" data-name="Path 905" d="M231.792,304.575v-.005a7.852,7.852,0,0,1,.028-.807l2.534-23.983a6.64,6.64,0,0,1,3.161-5.33,12.133,12.133,0,0,0-3.605,1.287l-.054.013a6.612,6.612,0,0,0-3.224,5.369L228.1,303.763c-.254,2.935,1.3,5.021,4.1,5.021h3.723A3.993,3.993,0,0,1,231.792,304.575Z" transform="translate(-195.108 -234.784)" fill="#d8a373"/>
  <path id="Path_906" data-name="Path 906" d="M276.041,255.269c-1.195-10.607-1.143-10.484-1.333-11.4a6.466,6.466,0,0,0-3.042-4.249l-.054-.013a9.182,9.182,0,0,0-2.179-.932l-7.581-1.887a.977.977,0,0,1-.417-.9v-3.656h0v-.019a11.219,11.219,0,0,1-9,0v.019h0v3.656a.977.977,0,0,1-.417.9c-6.413,1.708-7.839,1.668-9.759,2.819l-.054.013a6.645,6.645,0,0,0-3.224,5.369l-1.151,10.281,7.252.761a.73.73,0,0,1,.653.763l-.8,15.859h24.04l-.835-15.8a.793.793,0,0,1,.709-.831Z" transform="translate(-203.455 -198.652)" fill="#d83d3d"/>
  <path id="Path_907" data-name="Path 907" d="M237.827,291.4l3.605.378,1.268-12a6.64,6.64,0,0,1,3.161-5.33,12.3,12.3,0,0,0-3.605,1.287l-.054.013A6.458,6.458,0,0,0,239.16,280C238.927,281.127,238.971,281.374,237.827,291.4Z" transform="translate(-203.454 -234.784)" fill="#a82626"/>
  <path id="Path_908" data-name="Path 908" d="M43.58,261.374l-.054-.013c-1.821-1.091-3.375-1.142-6.7-2.057l0-.006-3.453-1.653-.025.038s0-.009,0-.014l-4.5,4.24-4.49-4.247L20.92,259.3h0c-3.355.923-4.9.972-6.723,2.063l-.054.013a6.612,6.612,0,0,0-3.224,5.369L9.768,277.028l7.114.746a.849.849,0,0,1,.759.887l-.791,15.746H40.89l-.835-15.8a.8.8,0,0,1,.711-.833l1.9-.2c1.394-11.566.986-12.6,2.675-14.671A10.237,10.237,0,0,0,43.58,261.374Z" transform="translate(-8.357 -220.407)" fill="#3b99fe"/>
  <path id="Path_909" data-name="Path 909" d="M14.644,280.4a6.616,6.616,0,0,1,2.538-4.877,10.031,10.031,0,0,0-2.983,1.132l-.054.013a7.763,7.763,0,0,0-1.762,1.534c-1.8,2.206-1.312,3.946-2.613,14.12l3.679.386C13.439,292.826,13.6,291.241,14.644,280.4Z" transform="translate(-8.359 -235.702)" fill="#3b54ff"/>
  <path id="Path_910" data-name="Path 910" d="M330.625,234.9l-3.036-.756a.977.977,0,0,1-.417-.9v-4.1h0v-.019a11.226,11.226,0,0,1-9,0v.019h0v4.1a.977.977,0,0,1-.417.9l-3.082.767A9.142,9.142,0,0,0,330.625,234.9Z" transform="translate(-269.191 -196.009)" fill="#eab883"/>
  <path id="SVGCleanerId_0" d="M44.139,17.994V14.113A14.139,14.139,0,0,1,66.32,2.534c7.268,5.075,5.884,12.537,6.044,15.46" transform="translate(-37.76 0)" fill="#4c4846"/>
  <g id="Group_9320" data-name="Group 9320" transform="translate(6.379 0)">
    <path id="SVGCleanerId_0_1_" d="M44.139,17.994V14.113A14.139,14.139,0,0,1,66.32,2.534c7.268,5.075,5.884,12.537,6.044,15.46" transform="translate(-44.139 0)" fill="#4c4846"/>
  </g>
  <path id="Path_911" data-name="Path 911" d="M59.659.075a14.124,14.124,0,0,0-15.52,14.042V18h2.814V14.117A14.116,14.116,0,0,1,59.659.075Z" transform="translate(-37.76 -0.004)" fill="#3f3b39"/>
  <g id="Group_9321" data-name="Group 9321" transform="translate(5.677 16.311)">
    <path id="Path_912" data-name="Path 912" d="M223.472,115.8a3.269,3.269,0,0,1-3.516,2.945v-5.889A3.269,3.269,0,0,1,223.472,115.8Z" transform="translate(-193.843 -112.858)" fill="#dd9a5e"/>
    <path id="Path_913" data-name="Path 913" d="M39.279,115.8a3.269,3.269,0,0,0,3.517,2.945v-5.889A3.269,3.269,0,0,0,39.279,115.8Z" transform="translate(-39.279 -112.858)" fill="#dd9a5e"/>
  </g>
  <g id="Group_9322" data-name="Group 9322" transform="translate(5.674 17.933)">
    <path id="Path_914" data-name="Path 914" d="M219.956,125.7v2.647a3.269,3.269,0,0,0,3.516-2.945,2.551,2.551,0,0,0-.375-1.323A3.636,3.636,0,0,1,219.956,125.7Z" transform="translate(-193.84 -124.075)" fill="#d38d54"/>
    <path id="Path_915" data-name="Path 915" d="M39.641,124.075c-1.167,1.938.507,4.268,3.141,4.268V125.7A3.636,3.636,0,0,1,39.641,124.075Z" transform="translate(-39.263 -124.075)" fill="#d38d54"/>
  </g>
  <path id="Path_916" data-name="Path 916" d="M83.555,74.922a1.614,1.614,0,0,0-1.867-1.607c-.21.033-.441.066-.589.087a43.606,43.606,0,0,1-13.067-.087,1.612,1.612,0,0,0-1.867,1.607,4.6,4.6,0,0,1-1.82,3.7,3.4,3.4,0,0,1-.784.443c0,7.314-.087,7.8.3,9.459a11.3,11.3,0,0,0,21.5,1.544c1.08-2.729.789-4.8.789-11A4.411,4.411,0,0,1,83.555,74.922Z" transform="translate(-54.368 -62.702)" fill="#edae6b"/>
  <path id="Path_917" data-name="Path 917" d="M67.75,90.39c-.8-2.844-.355-4.581-.48-9.971a1.573,1.573,0,0,1,.619-1.268,5.094,5.094,0,0,0,1.988-4.18,1.744,1.744,0,0,1,.663-1.343c-.538-.054-1.06-.116-1.542-.181-.281-.038-.6-.084-.921-.133a1.613,1.613,0,0,0-1.867,1.607,4.6,4.6,0,0,1-1.82,3.7,3.4,3.4,0,0,1-.784.443c0,7.358,0,6.978.011,7.34a11.287,11.287,0,0,0,8.51,10.457C71.913,96.7,68.646,93.59,67.75,90.39Z" transform="translate(-54.413 -62.702)" fill="#dd9a5e"/>
  <path id="Path_918" data-name="Path 918" d="M136.291,289.01v-9.167l-1.117,1.051-1.117-1.056v9.172a1.117,1.117,0,0,0,2.234,0Z" transform="translate(-114.682 -239.393)" fill="#3b54ff"/>
  <path id="Path_919" data-name="Path 919" d="M146.313,257.645l-4.529,4.264,2.445,2.464a1.1,1.1,0,0,0,1.649-.1l3.888-4.977Z" transform="translate(-121.292 -220.407)" fill="#dadada"/>
  <g id="Group_9323" data-name="Group 9323" transform="translate(20.492 37.238)">
    <path id="Path_920" data-name="Path 920" d="M148.052,258.477l-1.739-.832-4.529,4.264,1.618,1.63Z" transform="translate(-141.784 -257.645)" fill="#ceccca"/>
    <path id="Path_921" data-name="Path 921" d="M161,305.775a1.1,1.1,0,0,0,.646.078Z" transform="translate(-158.223 -298.819)" fill="#ceccca"/>
  </g>
  <path id="Path_922" data-name="Path 922" d="M90.052,257.763l4.49,4.247L92.1,264.474a1.1,1.1,0,0,1-1.649-.1L86.56,259.4Z" transform="translate(-74.05 -220.508)" fill="#dadada"/>
  <path id="Path_923" data-name="Path 923" d="M101.148,261.994l1.547,1.647,1.618-1.63-4.49-4.247-1.841.862Z" transform="translate(-83.822 -220.508)" fill="#ceccca"/>
  <path id="Path_924" data-name="Path 924" d="M321.91,235.52v-5.483a11.15,11.15,0,0,1-3.741-.915c-.113,3.256.3,4.7-.417,5.019l-3.082.767a9.78,9.78,0,0,0,3.027,3.184l3.2-1.176S321.91,236.414,321.91,235.52Z" transform="translate(-269.191 -196.008)" fill="#d8a373"/>
  <path id="Path_925" data-name="Path 925" d="M313.462,93.509A1.192,1.192,0,0,1,314.6,94.7v.854h0a15.209,15.209,0,0,1-.48,4.92,11.3,11.3,0,0,1-22.1-2.691c0-.043,0,.012-.006-.132s-.009-.3-.009-.445V91.474h0V90.9a1.4,1.4,0,0,1,1.119-1.371,9.044,9.044,0,0,0,4.71-2.707,1.03,1.03,0,0,1,1.545.05A19.076,19.076,0,0,0,313.462,93.509Z" transform="translate(-249.798 -73.997)" fill="#f7cf9c"/>
  <path id="Path_926" data-name="Path 926" d="M296.892,114.129c-1.492-3.015-1.146-5.152-1.169-9.343v-4.362a8.767,8.767,0,0,1-2.6,1.019A1.4,1.4,0,0,0,292,102.815v6.3c0,.187.01.478.011.495s.016.275.026.407a11.3,11.3,0,0,0,13.123,10.241A11.306,11.306,0,0,1,296.892,114.129Z" transform="translate(-249.798 -85.911)" fill="#eab883"/>
  <g id="Group_9324" data-name="Group 9324" transform="translate(43.342 38.891)">
    <path id="Path_927" data-name="Path 927" d="M380,269.623l-2.178-.542a9.307,9.307,0,0,1-7.981,4.685S380.047,283.971,380,269.623Z" transform="translate(-359.732 -269.081)" fill="#b72c2c"/>
    <path id="Path_928" data-name="Path 928" d="M299.884,269.623l2.178-.542a9.307,9.307,0,0,0,7.981,4.685S299.839,283.971,299.884,269.623Z" transform="translate(-299.884 -269.081)" fill="#b72c2c"/>
  </g>
  <g id="Group_9325" data-name="Group 9325" transform="translate(43.443 41.785)">
    <path id="Path_929" data-name="Path 929" d="M305.789,289.468c-1.8.959-3.875,1.416-5.2-.362,1.057,10.792,10.058,1.791,10.058,1.791A8.969,8.969,0,0,1,305.789,289.468Z" transform="translate(-300.585 -289.106)" fill="#a82626"/>
    <path id="Path_930" data-name="Path 930" d="M374.7,289.468c1.8.959,3.875,1.416,5.2-.362-1.057,10.792-10.058,1.791-10.058,1.791A8.969,8.969,0,0,0,374.7,289.468Z" transform="translate(-359.833 -289.106)" fill="#a82626"/>
  </g>
  <path id="Path_931" data-name="Path 931" d="M205.37,255.207a9.857,9.857,0,0,0-16.1.941c-2.081,3.361-1.3,6.424-1.468,7.361h19.7C207.437,261.584,207.967,258.478,205.37,255.207Z" transform="translate(-160.65 -215.131)" fill="#996123"/>
  <path id="Path_932" data-name="Path 932" d="M190.472,259.041c.044-.187.148-.555.153-.571a9.854,9.854,0,0,1,8.228-6.924,9.848,9.848,0,0,0-9.585,4.6c-2.081,3.361-1.3,6.423-1.468,7.361h2.407A17.692,17.692,0,0,1,190.472,259.041Z" transform="translate(-160.65 -215.127)" fill="#8e551c"/>
  <path id="Path_933" data-name="Path 933" d="M316.022,360.778a13.44,13.44,0,0,0-2.843-5.234,3.591,3.591,0,0,1-1.957.956,7.606,7.606,0,0,1,1.045,5.34.848.848,0,0,0,1.017.883l1.824-.378A1.22,1.22,0,0,0,316.022,360.778Z" transform="translate(-266.241 -304.157)" fill="#996123"/>
  <path id="Path_934" data-name="Path 934" d="M311.226,326.9a3.169,3.169,0,0,1-3.409,2.855v-5.71A3.169,3.169,0,0,1,311.226,326.9Z" transform="translate(-263.328 -277.207)" fill="#efd0a3"/>
  <path id="Path_935" data-name="Path 935" d="M167.212,360.778a13.44,13.44,0,0,1,2.843-5.234,3.59,3.59,0,0,0,1.957.956,7.606,7.606,0,0,0-1.045,5.34.848.848,0,0,1-1.017.883l-1.824-.378A1.22,1.22,0,0,1,167.212,360.778Z" transform="translate(-142.995 -304.157)" fill="#8e551c"/>
  <path id="Path_936" data-name="Path 936" d="M180.589,326.9A3.169,3.169,0,0,0,184,329.751v-5.71A3.169,3.169,0,0,0,180.589,326.9Z" transform="translate(-154.489 -277.207)" fill="#efd0a3"/>
  <g id="Group_9326" data-name="Group 9326" transform="translate(26.098 48.466)">
    <path id="Path_937" data-name="Path 937" d="M307.816,336.965v2.446c2.527,0,4.142-2.207,3.081-4.078A3.508,3.508,0,0,1,307.816,336.965Z" transform="translate(-289.425 -335.333)" fill="#e2bf91"/>
    <path id="Path_938" data-name="Path 938" d="M180.9,335.333c-1.063,1.874.562,4.078,3.081,4.078v-2.446A3.508,3.508,0,0,1,180.9,335.333Z" transform="translate(-180.571 -335.333)" fill="#e2bf91"/>
  </g>
  <path id="Path_939" data-name="Path 939" d="M193.531,418.152l-.777-6.941a4.41,4.41,0,0,0-2.137-3.559l-.036-.009c-1.268-.759-2.188-.728-6.469-1.868-.473-.214-.2-1.133-.276-3.465a7.5,7.5,0,0,1-5.968-.013c-.076,2.278.2,3.262-.276,3.478-4.273,1.138-5.2,1.108-6.469,1.868l-.036.009a4.279,4.279,0,0,0-2.016,2.816c-.151.732-.112.792-.9,7.684Z" transform="translate(-143.867 -344.153)" fill="#efd0a3"/>
  <path id="Path_940" data-name="Path 940" d="M168.171,439.881h25.358l-.777-6.941a4.415,4.415,0,0,0-2.137-3.559l-.036-.009c-1.257-.753-2.27-.755-5.664-1.668v.9a4.041,4.041,0,0,1-.419,1.8c-.044.089-.116.222-.185.332l-.051.08c-.071.109-.147.213-.221.307-.035.044-.083.1-.12.144l-.018.02-.073.081-.008.008v0l-.011.012c-.029.03-.058.06-.087.089l-.029.029q-.057.056-.116.109l-.034.03-.075.065-.012.01-.046.037-.08.063-.051.039-.08.058-.04.028-.013.009-.084.056-.013.008-.039.025-.072.044-.024.014-.011.006-.032.019q-.07.04-.141.077l-.02.01-.006,0-.024.012-.1.047-.052.024-.1.043-.059.024-.094.036-.061.022-.1.033-.048.016-.012,0-.027.008-.079.023-.039.011-.013,0q-.08.021-.161.039l-.024.005-.072.015q-.1.019-.194.033-.2.029-.4.038l-.048,0h-.289l-.048,0c-.134-.006-.267-.019-.4-.038q-.1-.014-.194-.033l-.072-.015-.024-.005c-.054-.012-.108-.025-.161-.039l-.013,0-.039-.011-.079-.023-.028-.008-.012,0-.048-.016-.1-.033-.061-.022-.094-.036-.059-.024-.1-.043-.052-.024-.1-.047-.024-.012-.007,0-.02-.01q-.071-.037-.141-.077l-.032-.019-.01-.006-.024-.014-.072-.044-.039-.025-.013-.008a4.056,4.056,0,0,1-1.683-2.232,6.823,6.823,0,0,1-.172-2.077l-.86.214c-2.7.736-3.629.74-4.833,1.461l-.036.009a4.294,4.294,0,0,0-2.016,2.816C168.917,432.928,168.947,433.071,168.171,439.881Z" transform="translate(-143.866 -365.882)" fill="#f9b938"/>
  <g id="Group_9327" data-name="Group 9327" transform="translate(24.306 62.408)">
    <path id="Path_941" data-name="Path 941" d="M170.956,439.013c.31-2.8.092-5.149,2.448-6.661l.036-.009a5.648,5.648,0,0,1,.836-.428q.081-.064.157-.116a11.987,11.987,0,0,0-3.311,1.082l-.036.009a4.28,4.28,0,0,0-2.022,2.847c-.149.734-.115.836-.892,7.654h2.318Z" transform="translate(-168.172 -431.798)" fill="#eaa224"/>
    <path id="Path_942" data-name="Path 942" d="M200.012,486.047l.1-3.232a1.117,1.117,0,0,0-2.232-.072l-.106,3.3Z" transform="translate(-193.498 -474.455)" fill="#eaa224"/>
    <path id="Path_943" data-name="Path 943" d="M300.372,486.047l-.106-3.3a1.117,1.117,0,0,0-2.232.072l.1,3.232Z" transform="translate(-279.264 -474.456)" fill="#eaa224"/>
  </g>
  <path id="Path_944" data-name="Path 944" d="M231.088,408.126a1.461,1.461,0,0,0,.913-1.363v-3.84a7.45,7.45,0,0,1-2.986-.625c-.076,2.279.2,3.262-.276,3.478l-.776.193a6.83,6.83,0,0,0,.172,2.077,4.113,4.113,0,0,0,.436.963l2.517-.883Z" transform="translate(-195.015 -344.154)" fill="#e2bf91"/>
  <path id="Path_945" data-name="Path 945" d="M211.035,305.112c-1.681,2.8-5.249,2.366-6.515,2.11a.383.383,0,0,0-.458.376h0c0,4.549-.139,5.549.318,7.061a7.491,7.491,0,0,0,14.661-2.166V307.6h0a.383.383,0,0,0-.458-.376c-1.267.256-4.835.686-6.515-2.11A.6.6,0,0,0,211.035,305.112Z" transform="translate(-174.552 -260.764)" fill="#fce3bb"/>
  <path id="Path_946" data-name="Path 946" d="M207.9,327.952c-.2-1.127-.07-1.563-.11-6.5a8.784,8.784,0,0,1-3.265-.059.383.383,0,0,0-.458.376c0,4.618-.136,5.558.318,7.061a7.493,7.493,0,0,0,9.033,5.088A7.5,7.5,0,0,1,207.9,327.952Z" transform="translate(-174.556 -274.936)" fill="#efd0a3"/>
</svg>
