<svg xmlns="http://www.w3.org/2000/svg" width="70.053" height="70.053" viewBox="0 0 70.053 70.053">
  <g id="Sublet_Rent" data-name="Sublet Rent" style="isolation: isolate">
    <path id="Path_976" data-name="Path 976" d="M101.025,57.515V97.887H42.64V57.515L71.832,40.33Z" transform="translate(-36.806 -34.812)" fill="#e6f3ff"/>
    <path id="Path_977" data-name="Path 977" d="M285.192,57.515V97.887H256V40.33Z" transform="translate(-220.973 -34.812)" fill="#bbe4f2"/>
    <path id="Path_978" data-name="Path 978" d="M94,227.435h17.162v31.957H94Z" transform="translate(-81.139 -196.317)" fill="#ffbe3b"/>
    <path id="Path_979" data-name="Path 979" d="M292.571,227.435h16.66v11.57h-16.66Z" transform="translate(-252.541 -196.317)" fill="#3b54ff"/>
    <path id="Path_980" data-name="Path 980" d="M0,438.86H70.053v10.007H0Z" transform="translate(0 -378.814)" fill="#3b99fe"/>
    <path id="Path_981" data-name="Path 981" d="M256,438.86h35.027v10.007H256Z" transform="translate(-220.973 -378.814)" fill="#3b54ff"/>
    <path id="Path_982" data-name="Path 982" d="M73.143,0H83.151V14.782H73.143Z" transform="translate(-63.135)" fill="#3b99fe"/>
    <path id="Path_983" data-name="Path 983" d="M70.053,20.222v10.03L35.027,10.03,0,30.253V20.222L35.027,0Z" fill="#3283d9"/>
    <path id="Path_984" data-name="Path 984" d="M291.027,20.222v10.03L256,10.03V0Z" transform="translate(-220.973)" fill="#3247d9"/>
  </g>
</svg>
