<svg id="Women_Job_Holder" data-name="Women Job Holder" xmlns="http://www.w3.org/2000/svg" width="67.272" height="74" viewBox="0 0 67.272 74">
  <path id="Path_857" data-name="Path 857" d="M96.363,344l21.323,12.344a10.091,10.091,0,0,1,4.933,7.306l.653,4.568H56l.653-4.567a10.091,10.091,0,0,1,4.933-7.306L82.909,344" transform="translate(-56 -294.218)" fill="#3b99fe"/>
  <path id="Path_858" data-name="Path 858" d="M306.241,446.216l4.486,2.991-2.691,4.036H304v-4.2Z" transform="translate(-262.292 -379.243)" fill="#3b54ff"/>
  <path id="Path_859" data-name="Path 859" d="M150.789,97.776h-5.516a7.668,7.668,0,0,1-7.65-8.2l1.944-28.1A14.48,14.48,0,0,1,154.177,48q2.594.03,5.188,0a9.735,9.735,0,0,1,8.829,5.382,10.271,10.271,0,0,1,5.939,5.151l.035.07a10.271,10.271,0,0,1,.986,3.174l3.009,21.572a10.219,10.219,0,0,1-4.452,9.914l-.093.062a10.448,10.448,0,0,1-5.809,1.766h-3.567Z" transform="translate(-123.88 -47.994)" fill="#515c66"/>
  <path id="Path_860" data-name="Path 860" d="M208.841,312v5.382l-1.345,4.036V341.6h16.145V321.418l-1.345-4.036V312Z" transform="translate(-182.018 -267.6)" fill="#fdc9a6"/>
  <path id="Path_861" data-name="Path 861" d="M228.954,312v3.083a10.9,10.9,0,0,1-6.682,2.3h-.2a10.523,10.523,0,0,1-6.578-2.3V312Z" transform="translate(-188.675 -267.6)" fill="#fdc9a6"/>
  <path id="Path_862" data-name="Path 862" d="M228.954,312v3.083a10.9,10.9,0,0,1-6.682,2.3h-.2a10.523,10.523,0,0,1-6.578-2.3V312Z" transform="translate(-188.675 -267.6)" fill="#e6af89"/>
  <path id="Path_863" data-name="Path 863" d="M96,454.727v-5.382a1.345,1.345,0,0,1,2.691,0v5.382Z" transform="translate(-89.273 -380.727)" fill="#3b54ff"/>
  <path id="Path_864" data-name="Path 864" d="M400,454.727v-5.382a1.345,1.345,0,0,1,2.691,0v5.382Z" transform="translate(-342.146 -380.727)" fill="#3b54ff"/>
  <path id="Path_865" data-name="Path 865" d="M148.882,176h-1.86a3.522,3.522,0,0,0-3.522,3.522V181.9a3.522,3.522,0,0,0,3.522,3.522h2.533Z" transform="translate(-128.784 -154.472)" fill="#fdc9a6"/>
  <path id="Path_866" data-name="Path 866" d="M332.173,176h1.859a3.522,3.522,0,0,1,3.523,3.522V181.9a3.523,3.523,0,0,1-3.523,3.522H331.5Z" transform="translate(-285.167 -154.472)" fill="#fdc9a6"/>
  <path id="Path_867" data-name="Path 867" d="M265.762,381.47a1.346,1.346,0,0,1-1.2-1.947l1.345-2.691a1.345,1.345,0,1,1,2.407,1.2l-1.345,2.691A1.346,1.346,0,0,1,265.762,381.47Z" transform="translate(-229.366 -320.909)" fill="#e6af89"/>
  <path id="Path_868" data-name="Path 868" d="M226.691,381.47a1.346,1.346,0,0,1-1.2-.744l-1.345-2.691a1.345,1.345,0,1,1,2.407-1.2l1.345,2.691a1.346,1.346,0,0,1-1.2,1.947Z" transform="translate(-195.745 -320.909)" fill="#e6af89"/>
  <path id="Path_869" data-name="Path 869" d="M172.374,446.662,168,449.578l2.691,4.036h4.036v-4.2Z" transform="translate(-149.164 -379.614)" fill="#3b54ff"/>
  <path id="Path_870" data-name="Path 870" d="M172.736,320l-6.861,7.717a7.064,7.064,0,0,0-.3,9.029l5.811,7.471V328.073l1.345-4.036Z" transform="translate(-145.912 -274.254)" fill="#3b54ff"/>
  <path id="Path_871" data-name="Path 871" d="M295.493,320l6.86,7.717a7.064,7.064,0,0,1,.3,9.029l-5.811,7.471V328.073l-1.345-4.036Z" transform="translate(-255.215 -274.254)" fill="#3b54ff"/>
  <path id="Path_872" data-name="Path 872" d="M223.645,424a18.051,18.051,0,0,1-16.145,0l.084,10.763h16.145Z" transform="translate(-182.021 -360.764)" fill="#f0f4f8"/>
  <path id="Path_873" data-name="Path 873" d="M188.991,154.99h-.2a10.534,10.534,0,0,1-9.413-5.776l-.086-.171a35.2,35.2,0,0,1-3.807-15.924c0-3.334,0-6.393,0-6.393a26.288,26.288,0,0,0,12.767-3.308L194.411,120l7.988,9.418v3.9a35.15,35.15,0,0,1-3.632,15.559l-.017.034A10.9,10.9,0,0,1,188.991,154.99Z" transform="translate(-155.393 -107.89)" fill="#fdc9a6"/>
  <g id="Group_9317" data-name="Group 9317" transform="translate(24.134 20.182)">
    <path id="Path_874" data-name="Path 874" d="M276.882,170.691h-4.036a1.345,1.345,0,1,1,0-2.691h4.036a1.345,1.345,0,1,1,0,2.691Z" transform="translate(-259.391 -168)" fill="#515c66"/>
    <circle id="Ellipse_39" data-name="Ellipse 39" cx="1.85" cy="1.85" r="1.85" transform="translate(13.286 3.868)" fill="#515c66"/>
    <path id="Path_875" data-name="Path 875" d="M204.882,170.691h-4.036a1.345,1.345,0,1,1,0-2.691h4.036a1.345,1.345,0,1,1,0,2.691Z" transform="translate(-199.5 -168)" fill="#515c66"/>
    <circle id="Ellipse_40" data-name="Ellipse 40" cx="1.85" cy="1.85" r="1.85" transform="translate(1.849 3.868)" fill="#515c66"/>
  </g>
  <path id="Path_876" data-name="Path 876" d="M235.528,267.335a7.206,7.206,0,0,1-3.142-.718l-.137-.066a1.346,1.346,0,0,1,1.174-2.422l.137.066a4.537,4.537,0,0,0,4.041-.05,1.345,1.345,0,1,1,1.234,2.391A7.212,7.212,0,0,1,235.528,267.335Z" transform="translate(-201.977 -227.668)" fill="#e6af89"/>
  <path id="Path_877" data-name="Path 877" d="M244.036,221.382h-2.691A1.345,1.345,0,0,1,240,220.036v-2.691a1.345,1.345,0,1,1,2.691,0v1.345h1.345a1.345,1.345,0,0,1,0,2.691Z" transform="translate(-209.055 -187.745)" fill="#e6af89"/>
</svg>
