<svg xmlns="http://www.w3.org/2000/svg" width="273.008" height="68" viewBox="0 0 273.008 68">
  <g id="Group_4" data-name="Group 4" transform="translate(-122.999 -313.628)">
    <g id="Group_1" data-name="Group 1" transform="translate(122.999 313.628)">
      <text id="text36" transform="translate(0 55)" fill="#e20613" font-size="51" font-family="SegoeUI-Bold, Segoe UI" font-weight="700"><tspan x="0" y="0">NATOUR</tspan></text>
    </g>
    <g id="g14" transform="translate(350.701 324.405)">
      <g id="Group_3" data-name="Group 3" transform="translate(0 0)">
        <g id="g22" transform="translate(0 0)">
          <path id="path24" d="M-769.945-130.562a116.716,116.716,0,0,0-12.268-6.746,1.335,1.335,0,0,0-1.148.113l-24.86,14.814a1.386,1.386,0,0,0-.667,1.191v28.673a1.334,1.334,0,0,0,.655,1.189,1.334,1.334,0,0,0,1.357,0,1.334,1.334,0,0,0,.655-1.189V-119.6a1.386,1.386,0,0,1,.667-1.193l22.548-13.435a1.3,1.3,0,0,1,1.334,0l10.331,6.157a1.394,1.394,0,0,0,1.412-.009,1.394,1.394,0,0,0,.68-1.238,1.448,1.448,0,0,0-.7-1.245" transform="translate(808.888 137.387)" fill="#e20613"/>
        </g>
        <g id="g26" transform="translate(21.752 20.029)">
          <path id="path28" d="M-67.317-200.724h3.359a3.461,3.461,0,0,0,3.4-3.514v-3.47a3.461,3.461,0,0,0-3.4-3.514h-3.359a3.461,3.461,0,0,0-3.4,3.514v3.47a3.461,3.461,0,0,0,3.4,3.514" transform="translate(70.721 211.221)" fill="#e20613"/>
        </g>
        <g id="g30" transform="translate(3.742 19.155)">
          <path id="path32" d="M-772.586-12.787l-13.39,23.293a1.325,1.325,0,0,1-1.157.673l-23.174-.285a1.355,1.355,0,0,0-.962.406,1.354,1.354,0,0,0-.387.97h0a1.355,1.355,0,0,0,1.316,1.376l24.716.3a1.324,1.324,0,0,0,1.157-.673l14.176-24.659c.887-1.516-1.42-2.956-2.294-1.4" transform="translate(811.655 13.454)" fill="#e20613"/>
        </g>
      </g>
    </g>
  </g>
</svg>
