<svg xmlns="http://www.w3.org/2000/svg" width="30.001" height="30.001" viewBox="0 0 30.001 30.001">
  <g id="location" transform="translate(326 93)">
    <rect id="Rectangle_70" data-name="Rectangle 70" width="30.001" height="30.001" transform="translate(-326 -93)" fill="#fff" opacity="0"/>
    <g id="Group_188" data-name="Group 188" transform="translate(-321.254 -89.667)">
      <g id="Group_185" data-name="Group 185" transform="translate(2.735)">
        <g id="Group_184" data-name="Group 184">
          <path id="Path_298" data-name="Path 298" d="M-309.5-89a7.512,7.512,0,0,0-7.52,7.52,7.5,7.5,0,0,0,1.407,4.376l5.537,8.64a.684.684,0,0,0,1.152,0l5.561-8.67a7.485,7.485,0,0,0,1.383-4.346A7.528,7.528,0,0,0-309.5-89Zm0,10.938a3.423,3.423,0,0,1-3.418-3.418A3.423,3.423,0,0,1-309.5-84.9a3.423,3.423,0,0,1,3.418,3.418A3.423,3.423,0,0,1-309.5-78.062Z" transform="translate(317.023 89)"/>
        </g>
      </g>
      <g id="Group_187" data-name="Group 187" transform="translate(0 15.71)">
        <g id="Group_186" data-name="Group 186">
          <path id="Path_299" data-name="Path 299" d="M-304.706-70.149l-3.443,5.381a2.26,2.26,0,0,1-3.8,0l-3.448-5.382c-3.034.7-4.9,1.987-4.9,3.522,0,2.664,5.284,4.1,10.255,4.1s10.255-1.438,10.255-4.1C-299.8-68.163-301.668-69.448-304.706-70.149Z" transform="translate(320.305 70.149)"/>
        </g>
      </g>
    </g>
  </g>
</svg>
