<svg xmlns="http://www.w3.org/2000/svg" xmlns:xlink="http://www.w3.org/1999/xlink" width="80" height="80" viewBox="0 0 80 80">
  <defs>
    <linearGradient id="linear-gradient" x1="0.844" y1="2.286" x2="0.387" y2="3.116" gradientUnits="objectBoundingBox">
      <stop offset="0" stop-color="#c6d1ff"/>
      <stop offset="0.583" stop-color="#e6d5f4"/>
      <stop offset="0.997" stop-color="#ffd9ec"/>
    </linearGradient>
  </defs>
  <g id="message_send_" data-name="message send " transform="translate(-711.062 -134.927)">
    <rect id="Rectangle_65" data-name="Rectangle 65" width="80" height="80" transform="translate(711.062 134.927)" fill="#fff"/>
    <g id="Group_164" data-name="Group 164" transform="translate(719.006 149.524)">
      <g id="Group_152" data-name="Group 152" transform="translate(0 3.181)">
        <path id="Path_271" data-name="Path 271" d="M783.783,166.573c-2.8-7.117-11.412-11.384-18.709-8.56-8.33,3.224-5.568,16.472-13.133,19.151-4.087,1.448-10.128-3.958-14.257-4.787-7.608-1.528-14.5,3.841-16.193,11.275-1.73,7.585,1.046,17.715,9.378,19.774,9.927,2.452,15.1-6.471,23.424-9.033,8.545-2.629,18.047,3.58,25.121-3.975,5.226-5.582,7.137-16.8,4.368-23.844Z" transform="translate(-721 -157.133)" fill="url(#linear-gradient)"/>
      </g>
      <g id="Group_163" data-name="Group 163" transform="translate(6.858)">
        <path id="Path_272" data-name="Path 272" d="M782.515,170.6a8.947,8.947,0,0,0-17.317-3.161H732.848a2.5,2.5,0,0,0-2.5,2.5v27.7a2.5,2.5,0,0,0,2.5,2.5h44.08a2.5,2.5,0,0,0,2.5-2.5V177.359a8.924,8.924,0,0,0,3.085-6.756Z" transform="translate(-729.721 -154.853)" fill="#2626bc" opacity="0.1" style="isolation: isolate"/>
        <g id="Group_162" data-name="Group 162" transform="translate(0 3.051)">
          <g id="Group_154" data-name="Group 154" transform="translate(0.624 6.411)">
            <path id="Path_273" data-name="Path 273" d="M776.928,197.679h-44.08a2.5,2.5,0,0,1-2.5-2.5v-27.7a2.5,2.5,0,0,1,2.5-2.5h44.08a2.5,2.5,0,0,1,2.5,2.5v27.7A2.5,2.5,0,0,1,776.928,197.679Z" transform="translate(-730.345 -164.978)" fill="#9fb0fe"/>
            <g id="Group_153" data-name="Group 153" transform="translate(0 0.001)">
              <path id="Path_274" data-name="Path 274" d="M787.967,167.481v10.571a8.946,8.946,0,0,1-12.2-13.072h9.7a2.5,2.5,0,0,1,2.5,2.5Z" transform="translate(-738.881 -164.979)" fill="#8399fe"/>
              <path id="Path_275" data-name="Path 275" d="M779.431,167.481v3.154l-22.256,17.1a3.751,3.751,0,0,1-4.573,0l-22.256-17.1v-3.154a2.5,2.5,0,0,1,2.5-2.5h44.082A2.5,2.5,0,0,1,779.431,167.481Z" transform="translate(-730.345 -164.979)" fill="#8399fe"/>
              <path id="Path_276" data-name="Path 276" d="M755.65,179.817l23.78,18.267a2.5,2.5,0,0,1-2.5,2.5h-44.08a2.5,2.5,0,0,1-2.5-2.5l23.78-18.267a1.249,1.249,0,0,1,1.524,0Z" transform="translate(-730.345 -167.886)" fill="#8399fe"/>
            </g>
            <path id="Path_277" data-name="Path 277" d="M767.434,185.813l-6.282,4.825a3.752,3.752,0,0,1-4.573,0l-6.282-4.825,7.806-6a1.25,1.25,0,0,1,1.524,0Z" transform="translate(-734.323 -167.885)" fill="#6583fe"/>
            <path id="Path_278" data-name="Path 278" d="M754.126,185.747l-23.78-18.267a2.5,2.5,0,0,1,2.5-2.5h44.08a2.5,2.5,0,0,1,2.5,2.5l-23.78,18.267A1.252,1.252,0,0,1,754.126,185.747Z" transform="translate(-730.345 -164.978)" fill="#b7c5ff"/>
          </g>
          <g id="Group_160" data-name="Group 160" transform="translate(19.292 31.761)">
            <path id="Path_279" data-name="Path 279" d="M777.8,200.663h-4.02a.626.626,0,0,1-.626-.625v-2.772a.626.626,0,0,1,.626-.625h4.02a.626.626,0,0,1,.625.625v2.772A.626.626,0,0,1,777.8,200.663Z" transform="translate(-757.549 -196.641)" fill="#02ffb3"/>
            <g id="Group_159" data-name="Group 159" transform="translate(0 0.222)">
              <g id="Group_156" data-name="Group 156" transform="translate(8.757)">
                <g id="Group_155" data-name="Group 155">
                  <path id="Path_280" data-name="Path 280" d="M768.707,198.169h-3.482a.625.625,0,0,1,0-1.251h3.482a.625.625,0,1,1,0,1.251Z" transform="translate(-764.6 -196.918)" fill="#fff"/>
                </g>
              </g>
              <g id="Group_158" data-name="Group 158" transform="translate(0 2.55)">
                <g id="Group_157" data-name="Group 157">
                  <path id="Path_281" data-name="Path 281" d="M766.526,201.354H754.287a.625.625,0,0,1,0-1.251h12.239a.625.625,0,1,1,0,1.251Z" transform="translate(-753.662 -200.103)" fill="#fff"/>
                </g>
              </g>
            </g>
          </g>
          <g id="Group_161" data-name="Group 161">
            <circle id="Ellipse_16" data-name="Ellipse 16" cx="8.947" cy="8.947" r="8.947" transform="translate(34.902 0.625)" fill="#ff5ba8"/>
            <path id="Path_282" data-name="Path 282" d="M773.413,176.114a9.588,9.588,0,1,0-5.863-2.014l-12.437,9.554a.627.627,0,0,1-.762,0l-23.513-18.063a1.88,1.88,0,0,1,1.854-1.585h28.693a.625.625,0,1,0,0-1.251H732.692a3.131,3.131,0,0,0-3.127,3.127v27.7a3.131,3.131,0,0,0,3.127,3.127h44.08a3.131,3.131,0,0,0,3.128-3.127V177.05a.626.626,0,0,0-1.251,0v15.261l-16.376-12.58,6.372-4.895a9.506,9.506,0,0,0,4.768,1.278Zm-26.222,3.617-16.376,12.58V167.152Zm31.433,14.138a1.878,1.878,0,0,1-1.852,1.588h-44.08a1.878,1.878,0,0,1-1.852-1.588l17.378-13.349,5.371,4.126a1.88,1.88,0,0,0,2.287,0l5.371-4.126Zm-13.532-27.327a8.321,8.321,0,1,1,8.321,8.321A8.331,8.331,0,0,1,765.092,166.542Z" transform="translate(-729.565 -156.97)" fill="#2626bc"/>
          </g>
          <path id="Path_283" data-name="Path 283" d="M779.443,164.9l1.277,3.051L779.443,171a.626.626,0,0,0,.823.817l7.708-3.293a.626.626,0,0,0,0-1.15l-7.708-3.292A.626.626,0,0,0,779.443,164.9Z" transform="translate(-739.5 -158.378)" fill="#fff"/>
          <path id="Path_284" data-name="Path 284" d="M783.73,168.955l-3.844,1.643.931-2.227-.933-2.227,3.845,1.643A.654.654,0,0,1,783.73,168.955Z" transform="translate(-739.598 -158.799)" fill="#ffdbed"/>
        </g>
        <path id="Path_285" data-name="Path 285" d="M772.24,156.785a1.813,1.813,0,1,1,1.283-.531A1.807,1.807,0,0,1,772.24,156.785Zm0-2.375a.562.562,0,1,0,.4.164A.561.561,0,0,0,772.24,154.41Z" transform="translate(-737.712 -153.159)" fill="#00eca2"/>
        <path id="Path_286" data-name="Path 286" d="M754.7,215.792a1.813,1.813,0,1,1,1.283-.531,1.806,1.806,0,0,1-1.283.531Zm0-2.376a.563.563,0,1,0,.4.165A.563.563,0,0,0,754.7,213.416Z" transform="translate(-734.214 -164.924)" fill="#00eca2"/>
        <path id="Path_287" data-name="Path 287" d="M766.311,159.093a.622.622,0,0,1-.442-.183l-.746-.746-.746.746a.626.626,0,0,1-.885-.885l1.189-1.188a.625.625,0,0,1,.884,0l1.189,1.188a.626.626,0,0,1-.443,1.068Z" transform="translate(-736.293 -153.855)" fill="#ff7eb8"/>
        <path id="Path_288" data-name="Path 288" d="M788.962,213.12a.621.621,0,0,1-.442-.183l-.746-.746-.746.746a.625.625,0,1,1-.885-.884l1.189-1.189a.625.625,0,0,1,.884,0l1.189,1.189a.625.625,0,0,1-.443,1.067Z" transform="translate(-740.809 -164.628)" fill="#ff7eb8"/>
        <path id="Path_289" data-name="Path 289" d="M748.2,213.862a.626.626,0,0,1-.443-.183l-.746-.746-.746.746a.625.625,0,1,1-.884-.885l1.188-1.189a.626.626,0,0,1,.885,0l1.188,1.189a.625.625,0,0,1-.442,1.067Z" transform="translate(-732.682 -164.775)" fill="#6583fe"/>
      </g>
    </g>
  </g>
</svg>
