<svg id="gas-service" xmlns="http://www.w3.org/2000/svg" width="33.538" height="33.538" viewBox="0 0 33.538 33.538">
  <g id="Group_9479" data-name="Group 9479" transform="translate(18.996 18.013)">
    <path id="Path_2258" data-name="Path 2258" d="M304.542,275.983v8.843a2.948,2.948,0,0,1-5.9,0V281.55a.984.984,0,0,0-.983-.983h-6.681a.983.983,0,0,1,0-1.965h6.681a2.951,2.951,0,0,1,2.948,2.948v3.275a.983.983,0,1,0,1.965,0V275Z" transform="translate(-290 -275)" fill="#bebcdd"/>
  </g>
  <g id="Group_9480" data-name="Group 9480" transform="translate(4.585 12.577)">
    <path id="Path_2259" data-name="Path 2259" d="M85.393,209.031H70.983a.983.983,0,0,1-.983-.983V192.983a.983.983,0,0,1,.983-.983H85.393a.983.983,0,0,1,.983.983v15.066A.983.983,0,0,1,85.393,209.031Z" transform="translate(-70 -192)" fill="#7873d5"/>
  </g>
  <g id="Group_9481" data-name="Group 9481" transform="translate(12.773 12.446)">
    <path id="Path_2260" data-name="Path 2260" d="M202.205,190H195v17.162h7.205a.983.983,0,0,0,.983-.983v-15.2A.983.983,0,0,0,202.205,190Z" transform="translate(-195 -190)" fill="#453d81"/>
  </g>
  <g id="Group_9492" data-name="Group 9492" transform="translate(0 4.585)">
    <path id="Path_2261" data-name="Path 2261" d="M58.013,422H42.293A2.293,2.293,0,0,0,40,424.293v2.62H60.306v-2.62A2.293,2.293,0,0,0,58.013,422Z" transform="translate(-37.38 -398.943)" fill="#ff7c48"/>
    <g id="Group_9482" data-name="Group 9482" transform="translate(12.773 23.057)">
      <path id="Path_2262" data-name="Path 2262" d="M205.153,424.293A2.293,2.293,0,0,0,202.86,422H195v4.913h10.153Z" transform="translate(-195 -422)" fill="#ff1f3d"/>
    </g>
    <g id="Group_9484" data-name="Group 9484" transform="translate(0 26.987)">
      <g id="Group_9483" data-name="Group 9483">
        <path id="Path_2263" data-name="Path 2263" d="M24.564,483.965H.983a.983.983,0,1,1,0-1.965H24.564a.983.983,0,1,1,0,1.965Z" transform="translate(0 -482)" fill="#7873d5"/>
      </g>
    </g>
    <g id="Group_9485" data-name="Group 9485" transform="translate(12.773 26.987)">
      <path id="Path_2264" data-name="Path 2264" d="M206.791,482H195v1.965h11.791a.983.983,0,1,0,0-1.965Z" transform="translate(-195 -482)" fill="#453d81"/>
    </g>
    <g id="Group_9487" data-name="Group 9487" transform="translate(9.498 12.511)">
      <g id="Group_9486" data-name="Group 9486">
        <path id="Path_2265" data-name="Path 2265" d="M148.275,269.515A3.279,3.279,0,0,1,145,266.24c0-1.484,1.91-4.091,2.5-4.855a.983.983,0,0,1,1.56,0c.585.764,2.5,3.371,2.5,4.855A3.279,3.279,0,0,1,148.275,269.515Z" transform="translate(-145 -261)" fill="#ffe278"/>
      </g>
    </g>
    <g id="Group_9488" data-name="Group 9488" transform="translate(12.773 12.511)">
      <path id="Path_2266" data-name="Path 2266" d="M195.78,261.385A.982.982,0,0,0,195,261v8.515a3.279,3.279,0,0,0,3.275-3.275C198.275,264.756,196.365,262.149,195.78,261.385Z" transform="translate(-195 -261)" fill="#ffc178"/>
    </g>
    <g id="Group_9489" data-name="Group 9489" transform="translate(27.642 4.978)">
      <path id="Path_2267" data-name="Path 2267" d="M427.9,155.432h-2.948A2.948,2.948,0,0,1,422,152.485v-5.5a.983.983,0,0,1,.983-.983h3.93a.983.983,0,0,1,.983.983Zm-3.93-7.467v4.52a.984.984,0,0,0,.983.983h.983v-5.5Z" transform="translate(-422 -146)" fill="#453d81"/>
    </g>
    <g id="Group_9490" data-name="Group 9490" transform="translate(21.944)">
      <path id="Path_2268" data-name="Path 2268" d="M335,70h1.36a4.435,4.435,0,0,1,4.309,3.364.983.983,0,1,1-1.906.477,2.473,2.473,0,0,0-2.4-1.876H335Z" transform="translate(-335 -70)" fill="#453d81"/>
    </g>
    <g id="Group_9491" data-name="Group 9491" transform="translate(25.677 2.62)">
      <path id="Path_2269" data-name="Path 2269" d="M399.86,114.913h-4.913A2.948,2.948,0,0,1,392,111.965v-.983a.983.983,0,0,1,.983-.983h3.93a2.948,2.948,0,0,1,2.948,2.948Z" transform="translate(-392 -110)" fill="#ff1f3d"/>
    </g>
  </g>
  <g id="Group_9495" data-name="Group 9495" transform="translate(2.62)">
    <g id="Group_9493" data-name="Group 9493">
      <path id="Path_2270" data-name="Path 2270" d="M58.013,15.066H42.293A2.3,2.3,0,0,1,40,12.773V2.293A2.3,2.3,0,0,1,42.293,0H58.013a2.3,2.3,0,0,1,2.293,2.293V12.773A2.3,2.3,0,0,1,58.013,15.066Z" transform="translate(-40)" fill="#ff7c48"/>
    </g>
    <g id="Group_9494" data-name="Group 9494" transform="translate(10.153)">
      <path id="Path_2271" data-name="Path 2271" d="M202.86,0H195V15.066h7.86a2.3,2.3,0,0,0,2.293-2.293V2.293A2.3,2.3,0,0,0,202.86,0Z" transform="translate(-195)" fill="#ff1f3d"/>
    </g>
  </g>
  <g id="Group_9496" data-name="Group 9496" transform="translate(6.55 3.93)">
    <path id="Path_2272" data-name="Path 2272" d="M111.463,67.205H100.983a.983.983,0,0,1-.983-.983v-5.24a.983.983,0,0,1,.983-.983h10.481a.983.983,0,0,1,.983.983v5.24A.983.983,0,0,1,111.463,67.205Z" transform="translate(-100 -60)" fill="#8cbcff"/>
  </g>
  <g id="Group_9497" data-name="Group 9497" transform="translate(12.773 3.93)">
    <path id="Path_2273" data-name="Path 2273" d="M200.24,60H195v7.205h5.24a.983.983,0,0,0,.983-.983v-5.24A.983.983,0,0,0,200.24,60Z" transform="translate(-195 -60)" fill="#7c84e8"/>
  </g>
</svg>
