<svg id="Generator" xmlns="http://www.w3.org/2000/svg" width="33.526" height="34.104" viewBox="0 0 33.526 34.104">
  <path id="Path_2213" data-name="Path 2213" d="M4.156,15H35.37a1.156,1.156,0,0,1,1.156,1.156V35.809H3V16.156A1.156,1.156,0,0,1,4.156,15Z" transform="translate(-3 -7.486)" fill="#5ac6aa"/>
  <path id="Path_2214" data-name="Path 2214" d="M3,51H36.526v3.468H3Z" transform="translate(-3 -22.677)" fill="#394d5c"/>
  <path id="Path_2215" data-name="Path 2215" d="M8,57h5.78v2.312H8Z" transform="translate(-5.11 -25.208)" fill="#7d8d9c"/>
  <path id="Path_2216" data-name="Path 2216" d="M46,57h5.78v2.312H46Z" transform="translate(-21.145 -25.208)" fill="#7d8d9c"/>
  <path id="Path_2217" data-name="Path 2217" d="M12,19h9.248V37.5H12Z" transform="translate(-6.798 -9.174)" fill="#72edc5"/>
  <path id="Path_2218" data-name="Path 2218" d="M16,23h4.624v4.624H16Z" transform="translate(-8.486 -10.861)" fill="#f4f4e6"/>
  <path id="Path_2219" data-name="Path 2219" d="M28,19h3.468V37.5H28Z" transform="translate(-13.549 -9.174)" fill="#388e75"/>
  <path id="Path_2220" data-name="Path 2220" d="M34,19H45.561V37.5H34Z" transform="translate(-16.081 -9.174)" fill="#72edc5"/>
  <path id="Path_2221" data-name="Path 2221" d="M8,22h2.312v2.312H8Z" transform="translate(-5.11 -10.439)" fill="#388e75"/>
  <path id="Path_2222" data-name="Path 2222" d="M8,42h2.312v2.312H8Z" transform="translate(-5.11 -18.879)" fill="#388e75"/>
  <g id="Group_9475" data-name="Group 9475" transform="translate(6.936 12.139)">
    <path id="Path_2223" data-name="Path 2223" d="M40.89,23h2.89l-1.734,2.89h2.89l-4.046,5.2V28.2H38Z" transform="translate(-24.705 -23)" fill="#fcf05a"/>
    <path id="Path_2224" data-name="Path 2224" d="M15,34h5.78v1.156H15Z" transform="translate(-15 -27.642)" fill="#fcf05a"/>
    <path id="Path_2225" data-name="Path 2225" d="M15,38h2.312v1.156H15Z" transform="translate(-15 -29.33)" fill="#fcf05a"/>
    <path id="Path_2226" data-name="Path 2226" d="M21,38h2.312v1.156H21Z" transform="translate(-17.532 -29.33)" fill="#fcf05a"/>
  </g>
  <path id="Path_2227" data-name="Path 2227" d="M48.734,45.046H47V43.89h1.156V41h1.156v3.468A.578.578,0,0,1,48.734,45.046Z" transform="translate(-21.567 -18.457)" fill="#f4f4e6"/>
  <path id="Path_2228" data-name="Path 2228" d="M43,46h1.156v1.156H43Z" transform="translate(-19.879 -20.567)" fill="#f4f4e6"/>
  <path id="Path_2229" data-name="Path 2229" d="M39,46h1.156v1.156H39Z" transform="translate(-18.191 -20.567)" fill="#f4f4e6"/>
  <path id="Path_2230" data-name="Path 2230" d="M35,7H45.4V9.312H35Z" transform="translate(-16.503 -4.11)" fill="#7d8d9c"/>
  <path id="Path_2231" data-name="Path 2231" d="M37,11h2.312v2.312H37Z" transform="translate(-17.347 -5.798)" fill="#394d5c"/>
  <path id="Path_2232" data-name="Path 2232" d="M47,11h2.312v2.312H47Z" transform="translate(-21.567 -5.798)" fill="#394d5c"/>
  <path id="Path_2233" data-name="Path 2233" d="M54.156,6.624H53V5.468h1.156a.578.578,0,0,0,.578-.578V2H55.89V4.89A1.734,1.734,0,0,1,54.156,6.624Z" transform="translate(-24.099 -2)" fill="#32b1cc"/>
</svg>
