<svg xmlns="http://www.w3.org/2000/svg" width="33.513" height="36.504" viewBox="0 0 33.513 36.504">
  <g id="Lift" style="isolation: isolate">
    <path id="Path_2205" data-name="Path 2205" d="M82.469,95.6v28.642H72.162l-.522-.094-.588.094H60.746V95.6a1.11,1.11,0,0,1,1.11-1.11h9.2l.483.3.627-.3h9.2A1.11,1.11,0,0,1,82.469,95.6Z" transform="translate(-56.352 -87.742)" fill="#8bb3ea"/>
    <path id="Path_2206" data-name="Path 2206" d="M125.992,29.012v2a.361.361,0,0,1-.362.362H111.992a.361.361,0,0,1-.362-.362v-2a.361.361,0,0,1,.349-.361H125.63A.362.362,0,0,1,125.992,29.012Z" transform="translate(-103.556 -26.661)" fill="#dbeaff"/>
    <path id="Path_2207" data-name="Path 2207" d="M410.16,199.263l-1.725,2.987a.261.261,0,0,0,.226.392h3.449a.261.261,0,0,0,.226-.392l-1.725-2.987A.261.261,0,0,0,410.16,199.263Z" transform="translate(-378.86 -184.812)" fill="#b3e59f"/>
    <path id="Path_2208" data-name="Path 2208" d="M410.614,303.54l1.724-2.987a.261.261,0,0,0-.226-.392h-3.449a.261.261,0,0,0-.226.392l1.725,2.987A.261.261,0,0,0,410.614,303.54Z" transform="translate(-378.861 -278.533)" fill="#ff8086"/>
    <path id="Path_2209" data-name="Path 2209" d="M3.554,37.654H1.776A1.776,1.776,0,0,1,0,35.878V2.926A1.776,1.776,0,0,1,1.776,1.15H3.554A1.776,1.776,0,0,0,1.778,2.926V35.878A1.776,1.776,0,0,0,3.554,37.654Z" transform="translate(0 -1.15)" fill="#dbeaff"/>
    <path id="Path_2210" data-name="Path 2210" d="M63.713,94.494A1.11,1.11,0,0,0,62.6,95.6v28.642h-1.85V95.6a1.11,1.11,0,0,1,1.11-1.11Z" transform="translate(-56.358 -87.742)" fill="#739ad6"/>
    <path id="Path_2211" data-name="Path 2211" d="M113.778,31.38h-1.787a.361.361,0,0,1-.362-.362v-2a.361.361,0,0,1,.349-.361h1.8a.37.37,0,0,0-.37.37v1.981A.37.37,0,0,0,113.778,31.38Z" transform="translate(-103.556 -26.67)" fill="#c3ddff"/>
    <g id="Group_9474" data-name="Group 9474" transform="translate(9.966 4.416)">
      <path id="Path_2212" data-name="Path 2212" d="M203.227,94.494h1.11v29.752h-1.11Z" transform="translate(-203.227 -94.494)" fill="#c3ddff"/>
    </g>
  </g>
</svg>
