<svg xmlns="http://www.w3.org/2000/svg" width="33.575" height="27.43" viewBox="0 0 33.575 27.43">
  <g id="parking" style="isolation: isolate">
    <path id="Path_2234" data-name="Path 2234" d="M171.5,387.328v1.658a1.094,1.094,0,0,0,1.094,1.094H174a1.094,1.094,0,0,0,1.094-1.094v-1.658Z" transform="translate(-160.249 -365.001)" fill="#5a5a5a"/>
    <path id="Path_2235" data-name="Path 2235" d="M409.042,387.328v1.658a1.094,1.094,0,0,0,1.094,1.094h1.414a1.094,1.094,0,0,0,1.094-1.094v-1.658Z" transform="translate(-382.218 -365.001)" fill="#5a5a5a"/>
    <path id="Path_2236" data-name="Path 2236" d="M168.358,262.58c.025,0,.05,0,.074,0l-.158-3.723a1.952,1.952,0,0,0-1.95-1.869H148a1.952,1.952,0,0,0-1.95,1.869l-.158,3.723C145.96,262.578,168.19,262.58,168.358,262.58Z" transform="translate(-136.328 -243.211)" fill="#08a9f1"/>
    <path id="Path_2237" data-name="Path 2237" d="M157.717,345.174H135.328a.821.821,0,0,1-.821-.821v-1.317a.821.821,0,0,1,.821-.821h22.389a.821.821,0,0,1,.821.821v1.317A.821.821,0,0,1,157.717,345.174Z" transform="translate(-125.687 -322.847)" fill="#cecece"/>
    <circle id="Ellipse_47" data-name="Ellipse 47" cx="1.181" cy="1.181" r="1.181" transform="translate(11.866 15.395)" fill="#fec165"/>
    <circle id="Ellipse_48" data-name="Ellipse 48" cx="1.181" cy="1.181" r="1.181" transform="translate(27.444 15.395)" fill="#fec165"/>
    <path id="Path_2238" data-name="Path 2238" d="M256.332,286.221h-8.445a.383.383,0,0,1-.383-.383v-1.259a.383.383,0,0,1,.383-.383h8.445a.383.383,0,0,1,.383.383v1.259A.383.383,0,0,1,256.332,286.221Z" transform="translate(-231.273 -268.632)" fill="#e2e2e2"/>
    <path id="Path_2239" data-name="Path 2239" d="M206.313,151.17l-.446-5.336a2.28,2.28,0,0,0-2.272-2.09H192.212a2.28,2.28,0,0,0-2.272,2.09l-.446,5.336Z" transform="translate(-177.068 -137.39)" fill="#0290cf"/>
    <path id="Path_2240" data-name="Path 2240" d="M220.82,176.207l.275-3.289a.393.393,0,0,1,.389-.358h11.383a.393.393,0,0,1,.389.358l.275,3.289Z" transform="translate(-206.339 -164.317)" fill="#dff6fd"/>
    <path id="Path_2241" data-name="Path 2241" d="M150.02,223.48h-2.136a.456.456,0,0,0-.456.456v1.058a.684.684,0,0,0,.684.684h2.075l.179-2.139A1.045,1.045,0,0,0,150.02,223.48Z" transform="translate(-137.76 -211.897)" fill="#01c0fa"/>
    <path id="Path_2242" data-name="Path 2242" d="M445.729,223.48h-2.136a1.046,1.046,0,0,0-.346.059l.179,2.139H445.5a.684.684,0,0,0,.684-.684v-1.058A.456.456,0,0,0,445.729,223.48Z" transform="translate(-414.181 -211.897)" fill="#08a9f1"/>
    <path id="Path_2243" data-name="Path 2243" d="M33.786,431.656h-33a.27.27,0,0,1-.27-.27v-1.81a.27.27,0,0,1,.27-.27h33a.27.27,0,0,1,.27.27v1.81A.27.27,0,0,1,33.786,431.656Z" transform="translate(-0.48 -404.226)" fill="#9c9c9c"/>
    <path id="Path_2244" data-name="Path 2244" d="M40.381,181.082h-1.62a.169.169,0,0,1-.169-.169V163.662H40.55v17.251A.169.169,0,0,1,40.381,181.082Z" transform="translate(-36.062 -156.002)" fill="#5a5a5a"/>
    <g id="Group_9476" data-name="Group 9476" transform="translate(28.099 13.78)">
      <path id="Path_2245" data-name="Path 2245" d="M428.491,256.993a1.952,1.952,0,0,1,1.95,1.869l.158,3.719h1.823c.025,0,.05,0,.074,0l-.159-3.723a1.952,1.952,0,0,0-1.95-1.869Z" transform="translate(-428.491 -256.992)" fill="#0290cf"/>
    </g>
    <path id="Path_2246" data-name="Path 2246" d="M375.6,143.746a2.28,2.28,0,0,1,2.272,2.09l.446,5.335h1.9l-.446-5.336a2.28,2.28,0,0,0-2.272-2.09Z" transform="translate(-350.971 -137.391)" fill="#017bae"/>
    <path id="Path_2247" data-name="Path 2247" d="M33.786,431.656h-33a.27.27,0,0,1-.27-.27v-1.81a.27.27,0,0,1,.27-.27h33a.27.27,0,0,1,.27.27v1.81A.27.27,0,0,1,33.786,431.656Z" transform="translate(-0.48 -404.226)" fill="#9c9c9c"/>
    <path id="Path_2248" data-name="Path 2248" d="M475.139,429.307h-2.3a.27.27,0,0,1,.27.27v1.81a.27.27,0,0,1-.27.27h2.3a.27.27,0,0,0,.27-.27v-1.81A.27.27,0,0,0,475.139,429.307Z" transform="translate(-441.834 -404.227)" fill="#838383"/>
    <path id="Path_2249" data-name="Path 2249" d="M157.717,345.174H135.328a.821.821,0,0,1-.821-.821v-1.317a.821.821,0,0,1,.821-.821h22.389a.821.821,0,0,1,.821.821v1.317A.821.821,0,0,1,157.717,345.174Z" transform="translate(-125.687 -322.847)" fill="#cecece"/>
    <path id="Path_2250" data-name="Path 2250" d="M455.7,342.217h-2.3a.821.821,0,0,1,.821.821v1.317a.821.821,0,0,1-.821.821h2.3a.821.821,0,0,0,.821-.821v-1.317A.821.821,0,0,0,455.7,342.217Z" transform="translate(-423.671 -322.848)" fill="#bfbfbf"/>
    <path id="Path_2251" data-name="Path 2251" d="M38.593,163.662H40.55v5.61H38.593Z" transform="translate(-36.062 -156.002)" fill="#444"/>
    <path id="Path_2252" data-name="Path 2252" d="M6.141,58.209H.877A.877.877,0,0,1,0,57.332v-9.6a.877.877,0,0,1,.877-.877H6.141a.877.877,0,0,1,.877.877v9.6A.877.877,0,0,1,6.141,58.209Z" transform="translate(0 -46.854)" fill="#eb5569"/>
    <path id="Path_2253" data-name="Path 2253" d="M69.093,46.854H67.37a.877.877,0,0,1,.877.877v9.6a.877.877,0,0,1-.877.877h1.723a.877.877,0,0,0,.877-.877v-9.6A.877.877,0,0,0,69.093,46.854Z" transform="translate(-62.952 -46.854)" fill="#e53950"/>
    <g id="Group_9477" data-name="Group 9477" transform="translate(1.731 2.705)">
      <path id="Path_2254" data-name="Path 2254" d="M26.906,94.044a.506.506,0,0,1-.506-.506V89.35A1.253,1.253,0,0,1,27.652,88.1h.565a2.025,2.025,0,0,1,0,4.051h-.8v1.389A.506.506,0,0,1,26.906,94.044Zm.506-2.907h.8a1.013,1.013,0,0,0,0-2.026h-.565a.24.24,0,0,0-.24.24Z" transform="translate(-26.4 -88.098)" fill="#fdd1d5"/>
    </g>
    <path id="Path_2255" data-name="Path 2255" d="M234.995,173.135a.393.393,0,0,1,.389.358l.227,2.715h1.58l-.275-3.289a.393.393,0,0,0-.389-.358H225.144a.393.393,0,0,0-.389.358l-.018.217h10.258Z" transform="translate(-209.999 -164.317)" fill="#c8effe"/>
    <g id="Group_9478" data-name="Group 9478" transform="translate(12.281 22.327)">
      <path id="Path_2256" data-name="Path 2256" d="M188.316,387.328v1.658a1.093,1.093,0,0,1-1.035,1.091c.02,0,.039,0,.059,0h1.414a1.094,1.094,0,0,0,1.094-1.094v-1.658Z" transform="translate(-187.281 -387.328)" fill="#444"/>
      <path id="Path_2257" data-name="Path 2257" d="M425.863,387.328v1.658a1.093,1.093,0,0,1-1.035,1.091c.02,0,.039,0,.059,0H426.3a1.094,1.094,0,0,0,1.094-1.094v-1.658Z" transform="translate(-409.25 -387.328)" fill="#444"/>
    </g>
  </g>
</svg>
