<svg id="security_gurd" data-name="security gurd" xmlns="http://www.w3.org/2000/svg" width="32.293" height="41.812" viewBox="0 0 32.293 41.812">
  <g id="Group_9529" data-name="Group 9529" transform="translate(0 25.24)">
    <path id="Path_2782" data-name="Path 2782" d="M87.586,307H76.708l-6.864,1.743A5.1,5.1,0,0,0,66,313.685v9.886H98.293v-9.886a5.1,5.1,0,0,0-3.844-4.942Z" transform="translate(-66 -307)" fill="#6e83b7"/>
  </g>
  <path id="Path_2783" data-name="Path 2783" d="M192.534,315.493l2.158-8.28-.839-.213H182.976l-.838.213L184.4,315.5l2.588-2.465.663,1.546-.935,8.992h3.4l-.935-8.992.676-1.578Z" transform="translate(-172.268 -281.76)" fill="#466089"/>
  <g id="Group_9530" data-name="Group 9530" transform="translate(12.407 21.857)">
    <path id="Path_2784" data-name="Path 2784" d="M219.478,267.188v2.125l-3.739,4.759L212,269.313v-2.125Z" transform="translate(-212 -267.188)" fill="#ffd3b3"/>
  </g>
  <g id="Group_9531" data-name="Group 9531" transform="translate(12.407 21.857)">
    <path id="Path_2785" data-name="Path 2785" d="M212,268.718a8.8,8.8,0,0,0,7.478,0v-1.53H212Z" transform="translate(-212 -267.188)" fill="#fcb98b"/>
  </g>
  <g id="Group_9532" data-name="Group 9532" transform="translate(8.413 8.838)">
    <path id="Path_2786" data-name="Path 2786" d="M180.467,114v6.3a7.733,7.733,0,1,1-15.467,0V114Z" transform="translate(-165 -114)" fill="#ffd3b3"/>
  </g>
  <g id="Group_9537" data-name="Group 9537" transform="translate(8.413 8.838)">
    <g id="Group_9534" data-name="Group 9534" transform="translate(0 0)">
      <g id="Group_9533" data-name="Group 9533">
        <path id="Path_2787" data-name="Path 2787" d="M165,119.524,166.785,114H165Z" transform="translate(-165 -114)" fill="#466089"/>
      </g>
    </g>
    <g id="Group_9536" data-name="Group 9536" transform="translate(13.682 0)">
      <g id="Group_9535" data-name="Group 9535">
        <path id="Path_2788" data-name="Path 2788" d="M326,114l1.785,5.524V114Z" transform="translate(-326 -114)" fill="#466089"/>
      </g>
    </g>
  </g>
  <g id="Group_9538" data-name="Group 9538" transform="translate(6.374 9.858)">
    <path id="Path_2789" data-name="Path 2789" d="M141.85,130.164h1.19V126h-1.19a.85.85,0,0,0-.85.85v2.465A.85.85,0,0,0,141.85,130.164Z" transform="translate(-141 -126)" fill="#ffd3b3"/>
  </g>
  <g id="Group_9539" data-name="Group 9539" transform="translate(23.88 9.858)">
    <path id="Path_2790" data-name="Path 2790" d="M348.19,130.164H347V126h1.19a.85.85,0,0,1,.85.85v2.465A.85.85,0,0,1,348.19,130.164Z" transform="translate(-347 -126)" fill="#ffd3b3"/>
  </g>
  <g id="Group_9540" data-name="Group 9540" transform="translate(10.708 23.981)">
    <path id="Path_2791" data-name="Path 2791" d="M193.7,292.188l-1.7,1.259,1.87,6.9,3.569-3.4Z" transform="translate(-192 -292.188)" fill="#6e83b7"/>
  </g>
  <g id="Group_9541" data-name="Group 9541" transform="translate(16.147 23.981)">
    <path id="Path_2792" data-name="Path 2792" d="M259.739,292.188l1.7,1.259-1.87,6.9-3.569-3.4Z" transform="translate(-256 -292.188)" fill="#6e83b7"/>
  </g>
  <g id="Group_9548" data-name="Group 9548" transform="translate(4.674 0)">
    <g id="Group_9542" data-name="Group 9542" transform="translate(0)">
      <path id="Path_2793" data-name="Path 2793" d="M132.473,20.724h7.65l3.822-4.605-3.994-4.164L132.473,10l-7.478,1.955L121,16.119l3.822,4.605Z" transform="translate(-121 -10)" fill="#466089"/>
    </g>
    <g id="Group_9543" data-name="Group 9543" transform="translate(3.994)">
      <path id="Path_2794" data-name="Path 2794" d="M175.478,10,168,11.955l3.513,8.769h7.93l3.513-8.769Z" transform="translate(-168 -10)" fill="#6e83b7"/>
    </g>
    <g id="Group_9544" data-name="Group 9544" transform="translate(3.739 10.708)">
      <path id="Path_2795" data-name="Path 2795" d="M165,137.36s.736.935,7.733.935,7.733-.935,7.733-.935V136H165Z" transform="translate(-165 -136)" fill="#6e83b7"/>
    </g>
    <g id="Group_9545" data-name="Group 9545" transform="translate(3.739 8.243)">
      <path id="Path_2796" data-name="Path 2796" d="M172.733,109.549a19.889,19.889,0,0,0-7.733,1.36V108.36a22.672,22.672,0,0,1,15.467,0v2.549A19.889,19.889,0,0,0,172.733,109.549Z" transform="translate(-165 -107)" fill="#466089"/>
    </g>
    <g id="Group_9546" data-name="Group 9546" transform="translate(19.206 9.858)">
      <path id="Path_2797" data-name="Path 2797" d="M347,126h.51v1.785H347Z" transform="translate(-347 -126)" fill="#ffe352"/>
    </g>
    <g id="Group_9547" data-name="Group 9547" transform="translate(3.229 9.858)">
      <path id="Path_2798" data-name="Path 2798" d="M159,126h.51v1.785H159Z" transform="translate(-159 -126)" fill="#ffe352"/>
    </g>
  </g>
  <g id="Group_9549" data-name="Group 9549" transform="translate(13.172 1.445)">
    <path id="Path_2799" data-name="Path 2799" d="M223.974,33.8s2.634-.425,2.634-2.549c0-.425-.425-.935-.425-1.615a1.884,1.884,0,0,1,.765-1.445l-.51-.935A2.836,2.836,0,0,1,223.974,27a2.836,2.836,0,0,1-2.465.255l-.51.935a1.884,1.884,0,0,1,.765,1.445c0,.68-.425,1.19-.425,1.615C221.34,33.374,223.974,33.8,223.974,33.8Z" transform="translate(-221 -27)" fill="#ffe352"/>
  </g>
  <g id="Group_9550" data-name="Group 9550" transform="translate(4.759 38.412)">
    <path id="Path_2800" data-name="Path 2800" d="M122,462h.85v3.4H122Z" transform="translate(-122 -462)" fill="#466089"/>
  </g>
  <g id="Group_9551" data-name="Group 9551" transform="translate(26.685 38.412)">
    <path id="Path_2801" data-name="Path 2801" d="M380,462h.85v3.4H380Z" transform="translate(-380 -462)" fill="#466089"/>
  </g>
  <g id="Group_9552" data-name="Group 9552" transform="translate(19.886 38.412)">
    <path id="Path_2802" data-name="Path 2802" d="M300,462h5.1v.85H300Z" transform="translate(-300 -462)" fill="#466089"/>
  </g>
  <g id="Group_9553" data-name="Group 9553" transform="translate(7.309 38.412)">
    <path id="Path_2803" data-name="Path 2803" d="M152,462h5.1v.85H152Z" transform="translate(-152 -462)" fill="#466089"/>
  </g>
</svg>
