<svg xmlns="http://www.w3.org/2000/svg" width="12.029" height="16.34" viewBox="0 0 12.029 16.34">
  <g id="Gas_Bill" data-name="Gas Bill" transform="translate(-11.015 -1.904)">
    <path id="Path_2188" data-name="Path 2188" d="M17.406,18.143a5.185,5.185,0,0,1-1.79-.312h0A6.507,6.507,0,0,1,11.54,14.3a7.384,7.384,0,0,1,.254-5.435.231.231,0,0,1,.43.037,3.037,3.037,0,0,0,.945,1.346A7.588,7.588,0,0,1,16.11,5.929c1.491-1.193.273-3.565.261-3.589a.231.231,0,0,1,.349-.286c4.106,3.332,3.87,6.688,3.539,8.067A2.237,2.237,0,0,0,21.1,8.052a.231.231,0,0,1,.419-.161,10.448,10.448,0,0,1,1.078,2.219,6.3,6.3,0,0,1-1.082,6.08l-.049.06A5.234,5.234,0,0,1,17.406,18.143ZM15.775,17.4a4.725,4.725,0,0,0,1.631.283,4.775,4.775,0,0,0,3.7-1.726l.046-.058a5.843,5.843,0,0,0,1.005-5.637,10.453,10.453,0,0,0-.62-1.418,3.1,3.1,0,0,1-1.6,2.04.231.231,0,0,1-.307-.307c.073-.156,1.66-3.712-2.518-7.573A2.982,2.982,0,0,1,16.383,6.3a7.109,7.109,0,0,0-2.822,4.4.231.231,0,0,1-.358.161A4.279,4.279,0,0,1,12.01,9.579a6.714,6.714,0,0,0-.043,4.552A6.07,6.07,0,0,0,15.775,17.4Z" transform="translate(0)" fill="#515c66"/>
    <path id="Path_2188_-_Outline" data-name="Path 2188 - Outline" d="M17.432,18.243h-.045a5.269,5.269,0,0,1-1.8-.318,6.6,6.6,0,0,1-4.135-3.584A7.5,7.5,0,0,1,11.7,8.826a.331.331,0,0,1,.616.05,2.936,2.936,0,0,0,.788,1.19,7.794,7.794,0,0,1,2.944-4.217c1.419-1.14.244-3.439.232-3.462a.331.331,0,0,1,.5-.41c3.893,3.159,3.91,6.367,3.637,7.864A2.144,2.144,0,0,0,21,8.066a.331.331,0,0,1,.6-.231,10.564,10.564,0,0,1,1.089,2.242,6.4,6.4,0,0,1-1.1,6.176l-.049.06A5.319,5.319,0,0,1,17.432,18.243Zm-.026-.2h.026a5.119,5.119,0,0,0,3.953-1.857l.049-.06A6.238,6.238,0,0,0,22.5,10.143a10.361,10.361,0,0,0-1.067-2.2.133.133,0,0,0-.154-.046.13.13,0,0,0-.082.14,2.344,2.344,0,0,1-.874,2.162l-.226.177.067-.279c.31-1.289.588-4.645-3.5-7.966a.134.134,0,0,0-.165,0,.131.131,0,0,0-.033.162c.013.024,1.268,2.468-.287,3.713l-.006,0a7.515,7.515,0,0,0-2.9,4.259l-.032.163-.129-.105a3.136,3.136,0,0,1-.977-1.39l0-.006a.131.131,0,0,0-.244-.021,7.282,7.282,0,0,0-.251,5.354,6.411,6.411,0,0,0,4.019,3.472,5.07,5.07,0,0,0,1.736.305Zm.024-.261h-.043a4.811,4.811,0,0,1-1.646-.289l-.053-.021a6.139,6.139,0,0,1-3.813-3.3,6.772,6.772,0,0,1,.041-4.622l.07-.2.111.184a4.155,4.155,0,0,0,1.164,1.256.133.133,0,0,0,.125.01.131.131,0,0,0,.076-.1,7.251,7.251,0,0,1,2.862-4.472,2.864,2.864,0,0,0,.694-3.186l-.1-.344.263.243c4.232,3.91,2.612,7.536,2.541,7.688a.131.131,0,0,0,.174.174,3.011,3.011,0,0,0,1.542-1.968l.052-.284.135.255a10.586,10.586,0,0,1,.626,1.431,5.943,5.943,0,0,1-1.022,5.733l-.045.057A4.862,4.862,0,0,1,17.43,17.782Zm-.024-.2h.024a4.662,4.662,0,0,0,3.6-1.69l.045-.056a5.777,5.777,0,0,0,.989-5.541,10.39,10.39,0,0,0-.491-1.164,3.277,3.277,0,0,1-1.589,1.844.331.331,0,0,1-.375-.065.331.331,0,0,1-.065-.375c.067-.144,1.566-3.5-2.246-7.22a2.948,2.948,0,0,1-.85,3.062l0,0a7.037,7.037,0,0,0-2.78,4.335.331.331,0,0,1-.514.232A4.353,4.353,0,0,1,12.04,9.812a6.461,6.461,0,0,0,.021,4.282,5.976,5.976,0,0,0,3.749,3.21l.052.02a4.611,4.611,0,0,0,1.525.259Z" transform="translate(0)" fill="#515c66"/>
    <path id="Path_2189" data-name="Path 2189" d="M28.388,40.854a.231.231,0,0,1-.148-.054,4.3,4.3,0,0,1-.847-5.676.231.231,0,0,1,.422.114,1.547,1.547,0,0,0,.36.966,4.686,4.686,0,0,1,2.033-4.53.231.231,0,0,1,.321.3,1.6,1.6,0,0,0-.186.781,1.693,1.693,0,0,0,.29.885l.092.141a14.459,14.459,0,0,0,.992,1.306A4.065,4.065,0,0,1,32.37,36.2a3.811,3.811,0,0,1-.849,4.28.231.231,0,1,1-.314-.338,3.286,3.286,0,0,0,.743-3.75.223.223,0,0,1-.01-.025,3.626,3.626,0,0,0-.579-.986,14.88,14.88,0,0,1-1.023-1.348l-.092-.141a2.154,2.154,0,0,1-.365-1.128,2.075,2.075,0,0,1,.012-.269,4.25,4.25,0,0,0-1.178,4.15.231.231,0,0,1-.293.268,1.575,1.575,0,0,1-.936-.989,3.654,3.654,0,0,0,1.051,4.518.231.231,0,0,1-.149.407Z" transform="translate(-11.965 -22.805)" fill="#515c66"/>
    <path id="Path_2189_-_Outline" data-name="Path 2189 - Outline" d="M28.388,40.955H28.2l.027-.041a.33.33,0,0,1-.054-.037,4.4,4.4,0,0,1-.866-5.808.331.331,0,0,1,.6.163,1.463,1.463,0,0,0,.121.56,4.786,4.786,0,0,1,2.115-4.2l.005,0a.331.331,0,0,1,.46.437,1.506,1.506,0,0,0-.175.733,1.59,1.59,0,0,0,.272.831l.093.142a14.41,14.41,0,0,0,.984,1.3,4.159,4.159,0,0,1,.67,1.139,3.923,3.923,0,0,1-.871,4.391.331.331,0,1,1-.452-.483,3.184,3.184,0,0,0,.721-3.633.327.327,0,0,1-.015-.037,3.517,3.517,0,0,0-.562-.955,15.028,15.028,0,0,1-1.029-1.356l-.093-.142a2.251,2.251,0,0,1-.381-1.179q0-.009,0-.017a4.183,4.183,0,0,0-.968,3.875.331.331,0,0,1-.42.384l-.007,0a1.666,1.666,0,0,1-.9-.817A3.511,3.511,0,0,0,28.6,40.371a.331.331,0,0,1-.213.583Zm-.8-5.833a.13.13,0,0,0-.109.058,4.21,4.21,0,0,0,.828,5.544.131.131,0,0,0,.084.031H28.4a.131.131,0,0,0,.071-.23,3.779,3.779,0,0,1-1.446-2.594,4.245,4.245,0,0,1,.367-2.04l.106-.241.081.251a1.468,1.468,0,0,0,.873.924.131.131,0,0,0,.163-.153,4.356,4.356,0,0,1,1.207-4.244l.2-.187-.03.271a1.982,1.982,0,0,0-.011.256,2.051,2.051,0,0,0,.348,1.074l.093.142a14.835,14.835,0,0,0,1.016,1.338,3.722,3.722,0,0,1,.6,1.014.163.163,0,0,0,.007.018,3.388,3.388,0,0,1-.765,3.867.131.131,0,0,0-.007.185.134.134,0,0,0,.184.007,3.719,3.719,0,0,0,.828-4.163l0-.007a3.958,3.958,0,0,0-.639-1.087,14.605,14.605,0,0,1-1-1.313l-.093-.142a1.789,1.789,0,0,1-.306-.936,1.706,1.706,0,0,1,.2-.831.131.131,0,0,0-.027-.153.133.133,0,0,0-.153-.02,4.614,4.614,0,0,0-1.986,4.432l.047.345-.223-.267a1.652,1.652,0,0,1-.383-1.029.129.129,0,0,0-.1-.113A.131.131,0,0,0,27.585,35.122Z" transform="translate(-11.965 -22.805)" fill="#515c66"/>
  </g>
</svg>
