<svg xmlns="http://www.w3.org/2000/svg" width="15.929" height="15.929" viewBox="0 0 15.929 15.929">
  <g id="Service" transform="translate(-4.978 -4.979)">
    <path id="Path_2190" data-name="Path 2190" d="M14.747,12.757,15.3,12.2a.19.19,0,0,0,0-.269l-.167-.167,3.49-3.49.884-.314a.19.19,0,0,0,.1-.083l1.049-1.795a.19.19,0,0,0-.03-.231l-.6-.6a.19.19,0,0,0-.231-.03L18.01,6.274a.191.191,0,0,0-.083.1l-.314.884-3.49,3.49-.167-.167a.19.19,0,0,0-.269,0l-.557.557-1.09-1.09A3.67,3.67,0,0,0,7.482,5.168a.19.19,0,0,0-.074.315L8.746,6.822,8.428,8.411,6.776,8.7,5.486,7.4a.191.191,0,0,0-.316.074,3.67,3.67,0,0,0,4.879,4.563l.648.648-.72.394a.19.19,0,0,0-.043.032l-4.3,4.3a1.489,1.489,0,0,0,0,2.1l.734.734a1.489,1.489,0,0,0,2.1,0l4.3-4.3a.19.19,0,0,0,.032-.043l.394-.72L18.5,20.495A1.408,1.408,0,1,0,20.494,18.5Zm-.36,1.081a.337.337,0,0,1-.476,0l-1.863-1.863a.337.337,0,1,1,.476-.476l1.863,1.863A.337.337,0,0,1,14.387,13.838ZM17.912,7.5a.19.19,0,0,0,.045-.071l.3-.859,1.608-.94.388.388-.94,1.608-.859.3a.19.19,0,0,0-.071.045l-3.52,3.52-.476-.476Zm-4.091,3.488L14.9,12.065l-.636.636-1.079-1.079Zm-3.6.694a.19.19,0,0,0-.214-.039,3.3,3.3,0,0,1-3.69-.667A3.269,3.269,0,0,1,5.444,7.9l1.132,1.14a.19.19,0,0,0,.168.053l1.878-.332a.19.19,0,0,0,.154-.15L9.14,6.8a.19.19,0,0,0-.052-.172L7.906,5.444a3.29,3.29,0,0,1,3.734,4.569.19.19,0,0,0,.039.214l.828.828a.716.716,0,0,0-.846.332l-.338-.338a.19.19,0,1,0-.269.269l.525.525a.715.715,0,0,0,.117.3l-.65.356ZM12.482,15.7,8.2,19.983a1.108,1.108,0,0,1-1.565,0L5.9,19.249a1.108,1.108,0,0,1,0-1.565l4.28-4.28,1.781-.974,1.493,1.493Zm7.743,4.523a1.027,1.027,0,0,1-1.453,0l-5.384-5.384.356-.65a.716.716,0,0,0,.3.118l.01.012,4.18,4.18a.19.19,0,1,0,.269-.269L14.5,14.225a.713.713,0,0,0,.332-.846l5.394,5.394a1.027,1.027,0,0,1,0,1.453Z" transform="translate(0)" fill="#515c66"/>
    <path id="Path_2191" data-name="Path 2191" d="M187.5,95.167a.19.19,0,0,0,.19-.176,2.946,2.946,0,0,0-.14-1.152.19.19,0,1,0-.361.12,2.565,2.565,0,0,1,.122,1,.19.19,0,0,0,.175.2Z" transform="translate(-176.424 -85.915)" fill="#515c66"/>
    <path id="Path_2192" data-name="Path 2192" d="M172.892,66.917a2.943,2.943,0,0,0-.18-.248.19.19,0,0,0-.3.239,2.564,2.564,0,0,1,.157.216.19.19,0,1,0,.319-.207Z" transform="translate(-162.084 -59.664)" fill="#515c66"/>
    <path id="Path_2193" data-name="Path 2193" d="M90.823,342.312l-3.042,3.042a.19.19,0,0,0,.269.269l3.042-3.041a.19.19,0,1,0-.269-.269Z" transform="translate(-80.122 -326.577)" fill="#515c66"/>
    <path id="Path_2194" data-name="Path 2194" d="M65.254,316.472a.19.19,0,0,0-.269,0l-3.042,3.042a.19.19,0,1,0,.269.269l3.042-3.041A.19.19,0,0,0,65.254,316.472Z" transform="translate(-55.104 -301.556)" fill="#515c66"/>
  </g>
</svg>
