<svg xmlns="http://www.w3.org/2000/svg" width="14.607" height="17.807" viewBox="0 0 14.607 17.807">
  <g id="Water_Bill" data-name="Water Bill" transform="translate(0)">
    <path id="Path_2183" data-name="Path 2183" d="M293.13,233.348a.348.348,0,1,0-.7,0,2.089,2.089,0,0,1-2.087,2.087.348.348,0,0,0,0,.7A2.785,2.785,0,0,0,293.13,233.348Zm0,0" transform="translate(-279.914 -224.897)" fill="#515c66"/>
    <path id="Path_2184" data-name="Path 2184" d="M121.8,336.156c-.184.277-1.8,2.739-1.8,3.774a2.089,2.089,0,1,0,4.173,0c0-1.035-1.613-3.5-1.8-3.774a.348.348,0,0,0-.58,0Zm1.681,3.774a1.395,1.395,0,1,1-2.782,0,9.441,9.441,0,0,1,1.391-2.939A9.441,9.441,0,0,1,123.478,339.93Zm0,0" transform="translate(-115.826 -324.315)" fill="#515c66"/>
    <path id="Path_2185" data-name="Path 2185" d="M2.435,166a.348.348,0,0,0-.286.15C1.928,166.468,0,169.3,0,170.521a2.434,2.434,0,0,0,4.869,0c0-1.226-1.928-4.053-2.148-4.371a.348.348,0,0,0-.286-.15Zm0,6.26A1.741,1.741,0,0,1,.7,170.521a10.94,10.94,0,0,1,1.739-3.55,10.934,10.934,0,0,1,1.739,3.55A1.741,1.741,0,0,1,2.435,172.26Zm0,0" transform="translate(0 -160.227)" fill="#515c66"/>
    <path id="Path_2186" data-name="Path 2186" d="M180.7,223.348a.348.348,0,1,1-.348-.348A.348.348,0,0,1,180.7,223.348Zm0,0" transform="translate(-173.74 -215.244)" fill="#515c66"/>
    <path id="Path_2187" data-name="Path 2187" d="M188.405.161a.348.348,0,0,0-.586,0,45.008,45.008,0,0,0-3.451,6.49.348.348,0,0,0,.651.245A41.561,41.561,0,0,1,188.113,1c1.189,1.923,3.477,5.935,3.477,7.448a3.478,3.478,0,0,1-6.827.942.348.348,0,0,0-.67.188,4.174,4.174,0,0,0,8.192-1.13c0-1.917-2.888-6.74-3.88-8.291Zm0,0" transform="translate(-177.678)" fill="#515c66"/>
  </g>
</svg>
