<svg id="bed_room" data-name="bed room" xmlns="http://www.w3.org/2000/svg" width="15.766" height="15.766" viewBox="0 0 15.766 15.766">
  <g id="Group_9440" data-name="Group 9440" transform="translate(0 6.832)">
    <g id="Group_9439" data-name="Group 9439">
      <path id="Path_2170" data-name="Path 2170" d="M9.985,211.18v-2.391A.789.789,0,0,0,9.2,208H1.839a.789.789,0,0,0-.788.788v2.391A1.316,1.316,0,0,0,0,212.467v4.2a.263.263,0,0,0,.263.263H1.314a.263.263,0,0,0,.263-.263v-.788H9.459v.788a.263.263,0,0,0,.263.263h1.051a.263.263,0,0,0,.263-.263v-4.2A1.316,1.316,0,0,0,9.985,211.18Zm-8.408-2.391a.263.263,0,0,1,.263-.263H9.2a.263.263,0,0,1,.263.263v2.365H8.934V210.1a.789.789,0,0,0-.788-.788H6.569a.789.789,0,0,0-.788.788v1.051H5.255V210.1a.789.789,0,0,0-.788-.788H2.89a.789.789,0,0,0-.788.788v1.051H1.577ZM8.408,210.1v1.051h-2.1V210.1a.263.263,0,0,1,.263-.263H8.146A.263.263,0,0,1,8.408,210.1Zm-3.679,0v1.051h-2.1V210.1a.263.263,0,0,1,.263-.263H4.467A.263.263,0,0,1,4.73,210.1Zm5.781,6.306H9.985v-.788a.263.263,0,0,0-.263-.263H1.314a.263.263,0,0,0-.263.263v.788H.526v-2.1H10.51Zm0-2.628H.526v-1.314a.789.789,0,0,1,.788-.788H9.722a.789.789,0,0,1,.788.788Z" transform="translate(0 -208)" fill="#515c66"/>
    </g>
  </g>
  <g id="Group_9442" data-name="Group 9442" transform="translate(11.561 9.985)">
    <g id="Group_9441" data-name="Group 9441">
      <path id="Path_2171" data-name="Path 2171" d="M355.941,304h-3.679a.263.263,0,0,0-.263.263V308.2h.526v-1.577h3.153V308.2h.526v-3.941A.263.263,0,0,0,355.941,304Zm-.263,2.1h-3.153v-1.577h3.153Z" transform="translate(-352 -304)" fill="#515c66"/>
    </g>
  </g>
  <g id="Group_9446" data-name="Group 9446" transform="translate(12.35 6.043)">
    <g id="Group_9445" data-name="Group 9445">
      <path id="Path_2172" data-name="Path 2172" d="M378.612,185.756l-.526-1.577a.263.263,0,0,0-.249-.179h-1.051a.263.263,0,0,0-.249.18l-.526,1.577a.263.263,0,0,0,.249.346h.788v.788h-.526v.526H378.1v-.526h-.526V186.1h.788a.263.263,0,0,0,.249-.346Zm-1.987-.179.351-1.051h.672l.35,1.051Z" transform="translate(-375.997 -184)" fill="#515c66"/>
    </g>
  </g>
  <g id="Group_9448" data-name="Group 9448" transform="translate(0 0)">
    <g id="Group_9447" data-name="Group 9447" transform="translate(0 0)">
      <path id="Path_2173" data-name="Path 2173" d="M15.61,3.439,7.99.023a.264.264,0,0,0-.215,0L.155,3.439A.263.263,0,0,0,0,3.679V6.832H.526V3.849L7.883.551l7.357,3.3V6.832h.526V3.679A.263.263,0,0,0,15.61,3.439Z" transform="translate(0 0)" fill="#515c66"/>
    </g>
  </g>
  <g id="Group_9450" data-name="Group 9450" transform="translate(6.043 2.102)">
    <g id="Group_9449" data-name="Group 9449">
      <path id="Path_2174" data-name="Path 2174" d="M187.653,65.533l-.518.087a1.294,1.294,0,0,1,.018.219,1.313,1.313,0,1,1-.876-1.239l.175-.5a1.84,1.84,0,1,0,1.226,1.734A1.859,1.859,0,0,0,187.653,65.533Z" transform="translate(-184 -64)" fill="#515c66"/>
    </g>
  </g>
  <g id="Group_9452" data-name="Group 9452" transform="translate(7.172 2.179)">
    <g id="Group_9451" data-name="Group 9451">
      <path id="Path_2175" data-name="Path 2175" d="M220.709,66.344,219.055,68l-.34-.34-.372.372.526.526a.263.263,0,0,0,.372,0l1.839-1.839Z" transform="translate(-218.344 -66.344)" fill="#515c66"/>
    </g>
  </g>
</svg>
