<svg xmlns="http://www.w3.org/2000/svg" width="15.766" height="15.766" viewBox="0 0 15.766 15.766">
  <g id="Calendar" transform="translate(-2 -2)">
    <path id="Path_2155" data-name="Path 2155" d="M16.452,3.577H15.138V3.051a1.051,1.051,0,0,0-2.1,0v.526h-2.1V3.051a1.051,1.051,0,1,0-2.1,0v.526H6.73V3.051a1.051,1.051,0,1,0-2.1,0v.526H3.314A1.314,1.314,0,0,0,2,4.89V15.4a1.314,1.314,0,0,0,1.314,1.314h7.357a.263.263,0,1,0,0-.526H3.314a.791.791,0,0,1-.788-.788V7.255H17.24v4.467a.263.263,0,1,0,.526,0V4.89a1.314,1.314,0,0,0-1.314-1.314Zm-2.89-.526a.526.526,0,1,1,1.051,0V4.628a.526.526,0,1,1-1.051,0Zm-4.2,0a.526.526,0,1,1,1.051,0V4.628a.526.526,0,1,1-1.051,0Zm-4.2,0a.526.526,0,1,1,1.051,0V4.628a.526.526,0,1,1-1.051,0ZM17.24,6.73H2.526V4.89A.791.791,0,0,1,3.314,4.1H4.628v.526a1.051,1.051,0,0,0,2.1,0V4.1h2.1v.526a1.051,1.051,0,1,0,2.1,0V4.1h2.1v.526a1.051,1.051,0,0,0,2.1,0V4.1h1.314a.791.791,0,0,1,.788.788Z" transform="translate(0)" fill="#515c66"/>
    <path id="Path_2156" data-name="Path 2156" d="M24.1,27.526A.526.526,0,0,0,23.577,27H22.526a.526.526,0,0,0-.526.526v.788a.526.526,0,0,0,.526.526h1.051a.526.526,0,0,0,.526-.526Zm-1.577.788v-.788h1.051v.788Z" transform="translate(-14.745 -18.431)" fill="#515c66"/>
    <path id="Path_2157" data-name="Path 2157" d="M12.1,27.526A.526.526,0,0,0,11.577,27H10.526a.526.526,0,0,0-.526.526v.788a.526.526,0,0,0,.526.526h1.051a.526.526,0,0,0,.526-.526Zm-1.577.788v-.788h1.051v.788Z" transform="translate(-5.898 -18.431)" fill="#515c66"/>
    <path id="Path_2158" data-name="Path 2158" d="M47.577,28.839a.526.526,0,0,0,.526-.526v-.788A.526.526,0,0,0,47.577,27H46.526a.526.526,0,0,0-.526.526v.788a.526.526,0,0,0,.526.526Zm-1.051-1.314h1.051v.788H46.526Z" transform="translate(-32.439 -18.431)" fill="#515c66"/>
    <path id="Path_2159" data-name="Path 2159" d="M24.1,36.526A.526.526,0,0,0,23.577,36H22.526a.526.526,0,0,0-.526.526v.788a.526.526,0,0,0,.526.526h1.051a.526.526,0,0,0,.526-.526Zm-1.577.788v-.788h1.051v.788Z" transform="translate(-14.745 -25.066)" fill="#515c66"/>
    <path id="Path_2160" data-name="Path 2160" d="M12.1,36.526A.526.526,0,0,0,11.577,36H10.526a.526.526,0,0,0-.526.526v.788a.526.526,0,0,0,.526.526h1.051a.526.526,0,0,0,.526-.526Zm-1.577.788v-.788h1.051v.788Z" transform="translate(-5.898 -25.066)" fill="#515c66"/>
    <path id="Path_2161" data-name="Path 2161" d="M23.577,45H22.526a.526.526,0,0,0-.526.526v.788a.526.526,0,0,0,.526.526h1.051a.526.526,0,0,0,.526-.526v-.788A.526.526,0,0,0,23.577,45Zm-1.051,1.314v-.788h1.051v.788Z" transform="translate(-14.745 -31.701)" fill="#515c66"/>
    <path id="Path_2162" data-name="Path 2162" d="M34.526,28.839h1.051a.526.526,0,0,0,.526-.526v-.788A.526.526,0,0,0,35.577,27H34.526a.526.526,0,0,0-.526.526v.788A.526.526,0,0,0,34.526,28.839Zm0-1.314h1.051v.788H34.526Z" transform="translate(-23.592 -18.431)" fill="#515c66"/>
    <path id="Path_2163" data-name="Path 2163" d="M34,37.314a.526.526,0,0,0,.526.526.263.263,0,1,0,0-.526v-.788h1.051a.263.263,0,1,0,0-.526H34.526a.526.526,0,0,0-.526.526Z" transform="translate(-23.592 -25.066)" fill="#515c66"/>
    <path id="Path_2164" data-name="Path 2164" d="M11.577,45H10.526a.526.526,0,0,0-.526.526v.788a.526.526,0,0,0,.526.526h1.051a.526.526,0,0,0,.526-.526v-.788A.526.526,0,0,0,11.577,45Zm-1.051,1.314v-.788h1.051v.788Z" transform="translate(-5.898 -31.701)" fill="#515c66"/>
    <path id="Path_2165" data-name="Path 2165" d="M39.416,36a3.416,3.416,0,1,0,3.416,3.416A3.416,3.416,0,0,0,39.416,36Zm0,6.306a2.89,2.89,0,1,1,2.89-2.89A2.89,2.89,0,0,1,39.416,42.306Z" transform="translate(-25.066 -25.066)" fill="#515c66"/>
    <path id="Path_2166" data-name="Path 2166" d="M45.179,44.592l-2.044,2.044-.929-.929a.263.263,0,1,0-.372.372l1.115,1.115a.263.263,0,0,0,.372,0l2.23-2.23a.263.263,0,1,0-.372-.372Z" transform="translate(-29.311 -31.344)" fill="#515c66"/>
  </g>
</svg>
