<svg xmlns="http://www.w3.org/2000/svg" width="15.969" height="15.849" viewBox="0 0 15.969 15.849">
  <g id="Flat_Rent" data-name="Flat Rent" transform="translate(0 -0.181)">
    <path id="Path_2122" data-name="Path 2122" d="M13.833,9.09l5.862,1.164a.983.983,0,0,1,.792.971v6.787a1,1,0,0,1-1,1H13.5a.329.329,0,0,0,.333-.333v-.333h5.656a.334.334,0,0,0,.333-.333V11.226a.334.334,0,0,0-.259-.326L13.833,9.769Z" transform="translate(-4.518 -2.981)" fill="#515c66"/>
    <path id="Path_2123" data-name="Path 2123" d="M18.663,14a.333.333,0,1,1,0,.665H17.333a.333.333,0,0,1,0-.665Z" transform="translate(-5.689 -4.624)" fill="#515c66"/>
    <path id="Path_2124" data-name="Path 2124" d="M18.663,17a.333.333,0,1,1,0,.665H17.333a.333.333,0,0,1,0-.665Z" transform="translate(-5.689 -5.628)" fill="#515c66"/>
    <path id="Path_2125" data-name="Path 2125" d="M18.663,20a.333.333,0,1,1,0,.665H17.333a.333.333,0,0,1,0-.665Z" transform="translate(-5.689 -6.632)" fill="#515c66"/>
    <path id="Path_2126" data-name="Path 2126" d="M13.665,18.648a.333.333,0,0,1-.665,0V9.333a.354.354,0,0,1,.12-.259.35.35,0,0,1,.279-.067l.266.053v9.588Z" transform="translate(-4.35 -2.951)" fill="#515c66"/>
    <path id="Path_2127" data-name="Path 2127" d="M11.829,23v.333a.329.329,0,0,0,.333.333H9.5a.329.329,0,0,0,.333-.333V23Z" transform="translate(-3.179 -7.636)" fill="#515c66"/>
    <path id="Path_2128" data-name="Path 2128" d="M9.663,5a.333.333,0,1,1,0,.665H8.333a.333.333,0,1,1,0-.665Z" transform="translate(-2.677 -1.613)" fill="#515c66"/>
    <path id="Path_2129" data-name="Path 2129" d="M10,8.333a.329.329,0,0,1-.333.333H8.333a.333.333,0,1,1,0-.665H9.663A.329.329,0,0,1,10,8.333Z" transform="translate(-2.677 -2.617)" fill="#515c66"/>
    <path id="Path_2130" data-name="Path 2130" d="M9.663,11a.333.333,0,1,1,0,.665H8.333a.333.333,0,1,1,0-.665Z" transform="translate(-2.677 -3.621)" fill="#515c66"/>
    <path id="Path_2131" data-name="Path 2131" d="M9.663,14a.333.333,0,1,1,0,.665H8.333a.333.333,0,1,1,0-.665Z" transform="translate(-2.677 -4.624)" fill="#515c66"/>
    <path id="Path_2132" data-name="Path 2132" d="M5,14.333a.329.329,0,0,1-.333.333H3.333a.333.333,0,1,1,0-.665H4.663A.329.329,0,0,1,5,14.333Z" transform="translate(-1.004 -4.624)" fill="#515c66"/>
    <path id="Path_2133" data-name="Path 2133" d="M4.663,5a.333.333,0,0,1,0,.665H3.333a.333.333,0,1,1,0-.665Z" transform="translate(-1.004 -1.613)" fill="#515c66"/>
    <path id="Path_2134" data-name="Path 2134" d="M4.663,8a.333.333,0,0,1,0,.665H3.333a.333.333,0,1,1,0-.665Z" transform="translate(-1.004 -2.617)" fill="#515c66"/>
    <path id="Path_2135" data-name="Path 2135" d="M4.663,11a.333.333,0,0,1,0,.665H3.333a.333.333,0,1,1,0-.665Z" transform="translate(-1.004 -3.621)" fill="#515c66"/>
    <path id="Path_2136" data-name="Path 2136" d="M7.327,18a.334.334,0,0,0-.333-.333H5A.329.329,0,0,0,4.665,18v2.994H4V18a1,1,0,0,1,1-1h2a1,1,0,0,1,1,1v2.994H7.327Z" transform="translate(-1.339 -5.628)" fill="#515c66"/>
    <path id="Path_2137" data-name="Path 2137" d="M4.665,23H7.992v.333a.329.329,0,0,1-.333.333H4.333A.329.329,0,0,1,4,23.333V23Z" transform="translate(-1.339 -7.636)" fill="#515c66"/>
    <path id="Path_2138" data-name="Path 2138" d="M1.164.193,8.477,1.3a.994.994,0,0,1,.838.985V6.109l-.266-.053a.35.35,0,0,0-.279.067.354.354,0,0,0-.12.259V2.289a.336.336,0,0,0-.279-.333L1.058.852A.184.184,0,0,0,1,.846a.314.314,0,0,0-.213.08.318.318,0,0,0-.12.253V15.031A.334.334,0,0,0,1,15.364H2.661V15.7a.329.329,0,0,0,.333.333H1a1,1,0,0,1-1-1V1.178A.98.98,0,0,1,.353.42,1,1,0,0,1,1.164.193Z" transform="translate(0 0)" fill="#515c66"/>
  </g>
</svg>
