<svg id="Floor" xmlns="http://www.w3.org/2000/svg" width="15.45" height="15.45" viewBox="0 0 15.45 15.45">
  <g id="Group_9453" data-name="Group 9453" transform="translate(0)">
    <path id="Path_2176" data-name="Path 2176" d="M15.193,0h-4.12a.258.258,0,0,0-.258.258V3.605H7.468a.258.258,0,0,0-.258.258V7.21H3.863a.258.258,0,0,0-.258.258v3.348H.258A.258.258,0,0,0,0,11.073v4.12a.258.258,0,0,0,.258.258H15.193a.258.258,0,0,0,.258-.258V.258A.258.258,0,0,0,15.193,0Zm-.258,14.935H.515V11.33H3.863a.258.258,0,0,0,.258-.258V7.725H7.468a.258.258,0,0,0,.258-.258V4.12h3.348a.258.258,0,0,0,.258-.258V.515h3.605Z" transform="translate(0)" fill="#515c66"/>
  </g>
</svg>
