<svg xmlns="http://www.w3.org/2000/svg" width="10.044" height="15.2" viewBox="0 0 10.044 15.2">
  <g id="For_Student_" data-name="For Student &amp;" transform="translate(-73.774)">
    <g id="Group_9455" data-name="Group 9455" transform="translate(73.774)">
      <g id="Group_9454" data-name="Group 9454" transform="translate(0)">
        <path id="Path_2180" data-name="Path 2180" d="M83.538,1.275H82.482v-1A.28.28,0,0,0,82.2,0H74.054a.28.28,0,0,0-.28.28V13.633a.278.278,0,0,0,.453.218l.889-.713V14.9a.28.28,0,0,0,.453.218l3.936-3.1,3.858,3.117a.28.28,0,0,0,.456-.218V1.554A.28.28,0,0,0,83.538,1.275Zm-8.143,0a.28.28,0,0,0-.28.28v10.88l-.783.621V.559h7.59v.716Zm7.863,13.049-3.573-2.89a.28.28,0,0,0-.349,0l-3.662,2.9V1.834h7.584Z" transform="translate(-73.774 0)" fill="#515c66"/>
      </g>
    </g>
    <g id="Group_9457" data-name="Group 9457" transform="translate(77.836 2.971)">
      <g id="Group_9456" data-name="Group 9456" transform="translate(0)">
        <path id="Path_2181" data-name="Path 2181" d="M191.647,85.039a1.624,1.624,0,1,0,1.616,1.632s0-.006,0-.008A1.624,1.624,0,0,0,191.647,85.039Zm0,2.686a1.065,1.065,0,1,1,1.057-1.073s0,.007,0,.011A1.065,1.065,0,0,1,191.647,87.726Z" transform="translate(-190.014 -85.039)" fill="#515c66"/>
      </g>
    </g>
  </g>
</svg>
