<svg xmlns="http://www.w3.org/2000/svg" width="15.359" height="15.41" viewBox="0 0 15.359 15.41">
  <g id="muslim" transform="translate(-0.843 0)">
    <path id="Path_2177" data-name="Path 2177" d="M26.216,3.812a.226.226,0,0,0,.3-.11A7.93,7.93,0,0,1,29.291.468a.083.083,0,0,1,.125.1,8.385,8.385,0,0,0,5.7,10.981.226.226,0,0,0,.059-.444A7.943,7.943,0,0,1,29.84.721a.536.536,0,0,0-.8-.629,8.383,8.383,0,0,0-2.933,3.42.226.226,0,0,0,.11.3Z" transform="translate(-24.482 0)" fill="#515c66"/>
    <path id="Path_2178" data-name="Path 2178" d="M16.085,148.306a.527.527,0,0,0-.605-.17,7.9,7.9,0,0,1-3.878.4.226.226,0,0,0-.066.447,8.35,8.35,0,0,0,4.1-.428.084.084,0,0,1,.1.124,7.871,7.871,0,0,1-14.239-2.6,7.984,7.984,0,0,1,.2-4.276.226.226,0,0,0-.429-.142A8.425,8.425,0,0,0,3.3,150.243a8.333,8.333,0,0,0,12.807-1.31.527.527,0,0,0-.027-.627Z" transform="translate(0 -137.249)" fill="#515c66"/>
    <path id="Path_2179" data-name="Path 2179" d="M249.5,83.3a.026.026,0,0,1,.008.023l-.2,1.184a.479.479,0,0,0,.7.5l1.055-.557a.027.027,0,0,1,.025,0l1.055.557a.478.478,0,0,0,.7-.5l-.2-1.184a.026.026,0,0,1,.008-.023l.858-.839a.479.479,0,0,0-.266-.815l-1.183-.173a.027.027,0,0,1-.02-.015l-.528-1.074a.479.479,0,0,0-.859,0l-.528,1.074a.027.027,0,0,1-.02.015l-1.183.173a.478.478,0,0,0-.266.815Zm-.548-1.189a.024.024,0,0,1,.022-.018l1.183-.173a.478.478,0,0,0,.36-.262l.528-1.074a.027.027,0,0,1,.048,0l.528,1.074a.478.478,0,0,0,.36.262l1.183.173a.024.024,0,0,1,.022.018.023.023,0,0,1-.007.027l-.858.839a.478.478,0,0,0-.137.422l.2,1.184a.023.023,0,0,1-.011.026.024.024,0,0,1-.029,0l-1.055-.557a.478.478,0,0,0-.447,0l-1.055.557a.024.024,0,0,1-.029,0,.023.023,0,0,1-.011-.026l.2-1.184a.478.478,0,0,0-.137-.422l-.858-.839A.023.023,0,0,1,248.953,82.114Z" transform="translate(-240.199 -77.708)" fill="#515c66"/>
  </g>
</svg>
