<svg xmlns="http://www.w3.org/2000/svg" width="14.669" height="18.727" viewBox="0 0 14.669 18.727">
  <g id="Wash_Room" data-name="Wash Room" transform="translate(-52)">
    <g id="Group_9414" data-name="Group 9414" transform="translate(52)">
      <g id="Group_9413" data-name="Group 9413">
        <path id="Path_2139" data-name="Path 2139" d="M65.733,0A.936.936,0,0,0,64.8.936v.312H57.93A1.562,1.562,0,0,0,56.37,2.809V4.37h-.624a.936.936,0,0,0-.936.936V6.381A4.6,4.6,0,0,0,52.624,10.3v.37a.936.936,0,0,0-.624.879v.624a.312.312,0,0,0,.312.312H62.3a.312.312,0,0,0,.312-.312v-.624a.936.936,0,0,0-.624-.879V10.3a4.663,4.663,0,0,0-1.373-3.312,4.21,4.21,0,0,0-.812-.612V5.306a.936.936,0,0,0-.936-.936h-.624V3.433a.312.312,0,0,1,.312-.312H64.8v.624a.936.936,0,0,0,.936.936h.936V0ZM61.988,11.548v.312H52.624v-.312a.312.312,0,0,1,.312-.312h8.739A.312.312,0,0,1,61.988,11.548ZM60.175,7.43a4.041,4.041,0,0,1,1.189,2.87v.312H53.248V10.3a3.984,3.984,0,0,1,1.958-3.433h4.2A3.639,3.639,0,0,1,60.175,7.43ZM58.867,4.994a.312.312,0,0,1,.312.312v.936H55.433V5.306a.312.312,0,0,1,.312-.312ZM64.8,2.5H58.554a.936.936,0,0,0-.936.936V4.37h-.624V2.809a.936.936,0,0,1,.936-.936H64.8Zm1.248,1.561h-.312a.312.312,0,0,1-.312-.312V.936a.312.312,0,0,1,.312-.312h.312Z" transform="translate(-52)" fill="#515c66"/>
      </g>
    </g>
    <g id="Group_9416" data-name="Group 9416" transform="translate(56.994 13.109)">
      <g id="Group_9415" data-name="Group 9415" transform="translate(0)">
        <path id="Path_2140" data-name="Path 2140" d="M180.312,336a.312.312,0,0,0-.312.312v1.248a.312.312,0,0,0,.624,0v-1.248A.312.312,0,0,0,180.312,336Z" transform="translate(-180 -336)" fill="#515c66"/>
      </g>
    </g>
    <g id="Group_9418" data-name="Group 9418" transform="translate(56.994 15.606)">
      <g id="Group_9417" data-name="Group 9417" transform="translate(0)">
        <path id="Path_2141" data-name="Path 2141" d="M180.312,400a.312.312,0,0,0-.312.312v1.249a.312.312,0,1,0,.624,0v-1.249A.312.312,0,0,0,180.312,400Z" transform="translate(-180 -400)" fill="#515c66"/>
      </g>
    </g>
    <g id="Group_9420" data-name="Group 9420" transform="translate(60.739 14.357)">
      <g id="Group_9419" data-name="Group 9419">
        <path id="Path_2142" data-name="Path 2142" d="M276.312,368a.312.312,0,0,0-.312.312v1.248a.312.312,0,0,0,.624,0v-1.248A.312.312,0,0,0,276.312,368Z" transform="translate(-276 -368)" fill="#515c66"/>
      </g>
    </g>
    <g id="Group_9422" data-name="Group 9422" transform="translate(58.242 14.357)">
      <g id="Group_9421" data-name="Group 9421" transform="translate(0)">
        <path id="Path_2143" data-name="Path 2143" d="M212.312,368a.312.312,0,0,0-.312.312v1.248a.312.312,0,0,0,.624,0v-1.248A.312.312,0,0,0,212.312,368Z" transform="translate(-212 -368)" fill="#515c66"/>
      </g>
    </g>
    <g id="Group_9424" data-name="Group 9424" transform="translate(55.745 14.357)">
      <g id="Group_9423" data-name="Group 9423">
        <path id="Path_2144" data-name="Path 2144" d="M148.312,368a.312.312,0,0,0-.312.312v1.248a.312.312,0,0,0,.624,0v-1.248A.312.312,0,0,0,148.312,368Z" transform="translate(-148 -368)" fill="#515c66"/>
      </g>
    </g>
    <g id="Group_9426" data-name="Group 9426" transform="translate(53.248 14.357)">
      <g id="Group_9425" data-name="Group 9425" transform="translate(0)">
        <path id="Path_2145" data-name="Path 2145" d="M84.312,368a.312.312,0,0,0-.312.312v1.248a.312.312,0,0,0,.624,0v-1.248A.312.312,0,0,0,84.312,368Z" transform="translate(-84 -368)" fill="#515c66"/>
      </g>
    </g>
    <g id="Group_9428" data-name="Group 9428" transform="translate(54.497 13.109)">
      <g id="Group_9427" data-name="Group 9427" transform="translate(0)">
        <path id="Path_2146" data-name="Path 2146" d="M116.312,336a.312.312,0,0,0-.312.312v1.248a.312.312,0,0,0,.624,0v-1.248A.312.312,0,0,0,116.312,336Z" transform="translate(-116 -336)" fill="#515c66"/>
      </g>
    </g>
    <g id="Group_9430" data-name="Group 9430" transform="translate(59.491 13.109)">
      <g id="Group_9429" data-name="Group 9429">
        <path id="Path_2147" data-name="Path 2147" d="M244.312,336a.312.312,0,0,0-.312.312v1.248a.312.312,0,0,0,.624,0v-1.248A.312.312,0,0,0,244.312,336Z" transform="translate(-244 -336)" fill="#515c66"/>
      </g>
    </g>
    <g id="Group_9432" data-name="Group 9432" transform="translate(59.491 15.606)">
      <g id="Group_9431" data-name="Group 9431">
        <path id="Path_2148" data-name="Path 2148" d="M244.312,400a.312.312,0,0,0-.312.312v1.249a.312.312,0,0,0,.624,0v-1.249A.312.312,0,0,0,244.312,400Z" transform="translate(-244 -400)" fill="#515c66"/>
      </g>
    </g>
    <g id="Group_9434" data-name="Group 9434" transform="translate(54.497 15.606)">
      <g id="Group_9433" data-name="Group 9433" transform="translate(0)">
        <path id="Path_2149" data-name="Path 2149" d="M116.312,400a.312.312,0,0,0-.312.312v1.249a.312.312,0,0,0,.624,0v-1.249A.312.312,0,0,0,116.312,400Z" transform="translate(-116 -400)" fill="#515c66"/>
      </g>
    </g>
    <g id="Group_9436" data-name="Group 9436" transform="translate(55.745 16.854)">
      <g id="Group_9435" data-name="Group 9435">
        <path id="Path_2150" data-name="Path 2150" d="M148.312,432a.312.312,0,0,0-.312.312v1.248a.312.312,0,0,0,.624,0v-1.248A.312.312,0,0,0,148.312,432Z" transform="translate(-148 -432)" fill="#515c66"/>
      </g>
    </g>
    <g id="Group_9438" data-name="Group 9438" transform="translate(58.242 16.854)">
      <g id="Group_9437" data-name="Group 9437" transform="translate(0)">
        <path id="Path_2151" data-name="Path 2151" d="M212.312,432a.312.312,0,0,0-.312.312v1.248a.312.312,0,0,0,.624,0v-1.248A.312.312,0,0,0,212.312,432Z" transform="translate(-212 -432)" fill="#515c66"/>
      </g>
    </g>
  </g>
</svg>
